<svg width="22" height="22" viewBox="0 0 22 22" fill="none" xmlns="http://www.w3.org/2000/svg">
<path fill-rule="evenodd" clip-rule="evenodd" d="M0.900391 11C0.900391 5.42189 5.42232 0.899963 11.0004 0.899963C16.5785 0.899963 21.1004 5.42189 21.1004 11C21.1004 16.578 16.5785 21.1 11.0004 21.1C5.42232 21.1 0.900391 16.578 0.900391 11ZM6.93472 6.9343C7.24714 6.62188 7.75367 6.62188 8.06609 6.9343L11.0004 9.86861L13.9347 6.9343C14.2471 6.62188 14.7537 6.62188 15.0661 6.9343C15.3785 7.24672 15.3785 7.75325 15.0661 8.06567L12.1318 11L15.0661 13.9343C15.3785 14.2467 15.3785 14.7532 15.0661 15.0657C14.7537 15.3781 14.2471 15.3781 13.9347 15.0657L11.0004 12.1314L8.06609 15.0657C7.75367 15.3781 7.24714 15.3781 6.93472 15.0657C6.6223 14.7532 6.6223 14.2467 6.93472 13.9343L9.86904 11L6.93472 8.06567C6.6223 7.75325 6.6223 7.24672 6.93472 6.9343Z" fill="#667685"/>
</svg>
