<svg width="14" height="9" viewBox="0 0 14 9" fill="none" xmlns="http://www.w3.org/2000/svg">
<path fill-rule="evenodd" clip-rule="evenodd" d="M1.64356 4.52534L3.27739 6.17934L7.30976 1.21139C7.5882 0.868341 8.09202 0.815969 8.43506 1.09441C8.77811 1.37285 8.83048 1.87667 8.55204 2.21972L3.39417 8.57431L0.50527 5.64975C0.194772 5.33542 0.197879 4.8289 0.512209 4.5184C0.826539 4.2079 1.33306 4.21101 1.64356 4.52534ZM6.21258 5.76637C6.48406 5.41779 6.98673 5.35529 7.33531 5.62678L8.20777 6.30629L12.3088 1.25378C12.5872 0.910737 13.091 0.858365 13.4341 1.13681C13.7771 1.41525 13.8295 1.91907 13.551 2.26212L8.46181 8.53215L6.35217 6.8891C6.00359 6.61761 5.94109 6.11495 6.21258 5.76637Z" fill="#99A3AD"/>
</svg>
