<svg width="14" height="14" viewBox="0 0 14 14" fill="none" xmlns="http://www.w3.org/2000/svg">
<path fill-rule="evenodd" clip-rule="evenodd" d="M10.6669 6.59993C10.8669 6.59993 11.0669 6.73327 11.1336 6.93327C11.2669 7.13327 11.2003 7.39993 11.0003 7.53327L7.7336 10.5333C7.5336 10.7333 7.26693 10.7999 7.00027 10.7999C6.7336 10.7999 6.46693 10.7333 6.26693 10.5333L3.00027 7.53327C2.86693 7.39993 2.80027 7.13327 2.86693 6.93327C2.9336 6.73327 3.1336 6.59993 3.3336 6.59993H5.26693L5.86693 1.13327C5.9336 0.599935 6.3336 0.266602 6.80027 0.266602H7.20027C7.66693 0.266602 8.06693 0.666602 8.1336 1.13327L8.7336 6.59993H10.6669ZM1.33359 13.0666H12.6669C12.8669 13.0666 13.0669 12.8666 13.0669 12.6666C13.0669 12.4666 12.8669 12.2666 12.6669 12.2666H1.33359C1.13359 12.2666 0.933594 12.4666 0.933594 12.6666C0.933594 12.8666 1.13359 13.0666 1.33359 13.0666Z" fill="#667685"/>
</svg>
