<svg width="28" height="34" viewBox="0 0 28 34" fill="none" xmlns="http://www.w3.org/2000/svg">
<path fill-rule="evenodd" clip-rule="evenodd" d="M18.167 1.16673L26.667 9.66673C27.167 10.0001 27.3337 10.6667 27.3337 11.3334V28.0001C27.3337 31.1667 24.8337 33.6667 21.8337 33.6667H6.16699C3.16699 33.6667 0.666992 31.1667 0.666992 28.1667V6.00006C0.666992 2.8334 3.16699 0.333396 6.16699 0.500062H16.5003C17.167 0.500062 17.667 0.666729 18.167 1.16673ZM24.8337 11.5001C24.8337 11.1667 24.667 10.8334 24.5003 10.5001L17.3337 3.16673C17.167 2.83339 16.667 2.83339 16.3337 2.83339H15.667V10.6667C15.667 11.3334 16.3337 12.0001 17.0003 12.0001H24.8337V11.5001ZM7.33365 17.6667C6.78136 17.6667 6.33365 18.1144 6.33365 18.6667C6.33365 19.219 6.78136 19.6667 7.33365 19.6667H20.667C21.2193 19.6667 21.667 19.219 21.667 18.6667C21.667 18.1144 21.2193 17.6667 20.667 17.6667H7.33365ZM7.33365 22.6667C6.78136 22.6667 6.33365 23.1144 6.33365 23.6667C6.33365 24.219 6.78136 24.6667 7.33365 24.6667H17.3336C17.8859 24.6667 18.3336 24.219 18.3336 23.6667C18.3336 23.1144 17.8859 22.6667 17.3336 22.6667H7.33365Z" fill="white"/>
</svg>
