<svg width="16" height="20" viewBox="0 0 16 20" fill="none" xmlns="http://www.w3.org/2000/svg">
<path fill-rule="evenodd" clip-rule="evenodd" d="M10.5 0.49994L15.6 5.59994C15.9 5.79994 16 6.19994 16 6.59994V16.5999C16 18.4999 14.5 19.9999 12.7 19.9999H3.3C1.5 19.9999 0 18.4999 0 16.6999V3.39994C0 1.49994 1.5 -6.02901e-05 3.3 0.0999396H9.5C9.9 0.0999396 10.2 0.19994 10.5 0.49994ZM14.5 6.69994C14.5 6.49994 14.4 6.29994 14.3 6.09994L10 1.69994C9.9 1.49994 9.6 1.49994 9.4 1.49994H9V6.19994C9 6.59994 9.4 6.99994 9.8 6.99994H14.5V6.69994ZM3.99999 10.3999C3.66862 10.3999 3.39999 10.6686 3.39999 10.9999C3.39999 11.3313 3.66862 11.5999 3.99999 11.5999H12C12.3314 11.5999 12.6 11.3313 12.6 10.9999C12.6 10.6686 12.3314 10.3999 12 10.3999H3.99999ZM3.99999 13.3999C3.66862 13.3999 3.39999 13.6686 3.39999 13.9999C3.39999 14.3313 3.66862 14.5999 3.99999 14.5999H9.99999C10.3314 14.5999 10.6 14.3313 10.6 13.9999C10.6 13.6686 10.3314 13.3999 9.99999 13.3999H3.99999Z" fill="#778D9E"/>
</svg>
