<svg width="16" height="16" viewBox="0 0 16 16" fill="none" xmlns="http://www.w3.org/2000/svg">
<path d="M7.93345 14.6667C7.80011 14.6667 7.66678 14.6666 7.46678 14.6C6.20011 14 4.73345 12.9333 3.66678 11.7333C2.66678 10.6667 1.53345 8.93332 1.53345 7.06665C1.53345 5.99998 1.86678 4.99998 2.46678 4.26665C3.13345 3.46665 4.06678 3.06665 5.13345 3.06665C6.13345 3.06665 7.06678 3.53332 7.93345 4.39998C8.80011 3.53332 9.73345 3.06665 10.7334 3.06665C11.8001 3.06665 12.7334 3.46665 13.4001 4.26665C14.0001 4.99998 14.3334 5.99998 14.3334 7.06665C14.3334 8.99998 13.1334 10.6667 12.2001 11.7333C11.1334 12.9333 9.73345 14 8.40011 14.6C8.26678 14.6 8.13345 14.6667 7.93345 14.6667ZM5.20011 3.79998C4.40011 3.79998 3.66678 4.13332 3.13345 4.73332C2.66678 5.33332 2.40011 6.13332 2.40011 7.06665C2.40011 8.73332 3.46678 10.2 4.33345 11.2C5.33345 12.3333 6.66678 13.2667 7.86678 13.8667C7.93345 13.8667 8.00011 13.8667 8.06678 13.8667C9.26678 13.3333 10.6001 12.3333 11.6001 11.2C12.4668 10.2 13.5334 8.73332 13.5334 7.06665C13.5334 6.13332 13.2668 5.33332 12.8001 4.73332C12.2668 4.13332 11.6001 3.79998 10.7334 3.79998C9.66678 3.79998 8.80011 4.53332 8.26678 5.19998C8.13345 5.39998 7.80011 5.39998 7.66678 5.19998C7.13345 4.53332 6.26678 3.79998 5.20011 3.79998Z" fill="#667685"/>
</svg>
