<svg width="22" height="16" viewBox="0 0 22 16" fill="none" xmlns="http://www.w3.org/2000/svg">
<path d="M1.9999 3.2C2.60742 3.2 3.0999 2.70751 3.0999 2.1C3.0999 1.49249 2.60742 1 1.9999 1C1.39239 1 0.899902 1.49249 0.899902 2.1C0.899902 2.70751 1.39239 3.2 1.9999 3.2Z" fill="#667685"/>
<path d="M9.0999 2.1C9.0999 2.70751 8.60742 3.2 7.9999 3.2C7.39239 3.2 6.8999 2.70751 6.8999 2.1C6.8999 1.49249 7.39239 1 7.9999 1C8.60742 1 9.0999 1.49249 9.0999 2.1Z" fill="#667685"/>
<path d="M7.9999 9.2C8.60742 9.2 9.0999 8.70751 9.0999 8.1C9.0999 7.49249 8.60742 7 7.9999 7C7.39239 7 6.8999 7.49249 6.8999 8.1C6.8999 8.70751 7.39239 9.2 7.9999 9.2Z" fill="#667685"/>
<path d="M17.9999 13.1H3.9999V15.1H17.9999V13.1Z" fill="#667685"/>
<path d="M15.0999 8.1C15.0999 8.70751 14.6074 9.2 13.9999 9.2C13.3924 9.2 12.8999 8.70751 12.8999 8.1C12.8999 7.49249 13.3924 7 13.9999 7C14.6074 7 15.0999 7.49249 15.0999 8.1Z" fill="#667685"/>
<path d="M13.9999 3.2C14.6074 3.2 15.0999 2.70751 15.0999 2.1C15.0999 1.49249 14.6074 1 13.9999 1C13.3924 1 12.8999 1.49249 12.8999 2.1C12.8999 2.70751 13.3924 3.2 13.9999 3.2Z" fill="#667685"/>
<path d="M21.0999 2.1C21.0999 2.70751 20.6074 3.2 19.9999 3.2C19.3924 3.2 18.8999 2.70751 18.8999 2.1C18.8999 1.49249 19.3924 1 19.9999 1C20.6074 1 21.0999 1.49249 21.0999 2.1Z" fill="#667685"/>
<path d="M1.9999 3.2C2.60742 3.2 3.0999 2.70751 3.0999 2.1C3.0999 1.49249 2.60742 1 1.9999 1C1.39239 1 0.899902 1.49249 0.899902 2.1C0.899902 2.70751 1.39239 3.2 1.9999 3.2Z" stroke="#667685" stroke-width="0.2"/>
<path d="M9.0999 2.1C9.0999 2.70751 8.60742 3.2 7.9999 3.2C7.39239 3.2 6.8999 2.70751 6.8999 2.1C6.8999 1.49249 7.39239 1 7.9999 1C8.60742 1 9.0999 1.49249 9.0999 2.1Z" stroke="#667685" stroke-width="0.2"/>
<path d="M7.9999 9.2C8.60742 9.2 9.0999 8.70751 9.0999 8.1C9.0999 7.49249 8.60742 7 7.9999 7C7.39239 7 6.8999 7.49249 6.8999 8.1C6.8999 8.70751 7.39239 9.2 7.9999 9.2Z" stroke="#667685" stroke-width="0.2"/>
<path d="M17.9999 13.1H3.9999V15.1H17.9999V13.1Z" stroke="#667685" stroke-width="0.2"/>
<path d="M15.0999 8.1C15.0999 8.70751 14.6074 9.2 13.9999 9.2C13.3924 9.2 12.8999 8.70751 12.8999 8.1C12.8999 7.49249 13.3924 7 13.9999 7C14.6074 7 15.0999 7.49249 15.0999 8.1Z" stroke="#667685" stroke-width="0.2"/>
<path d="M13.9999 3.2C14.6074 3.2 15.0999 2.70751 15.0999 2.1C15.0999 1.49249 14.6074 1 13.9999 1C13.3924 1 12.8999 1.49249 12.8999 2.1C12.8999 2.70751 13.3924 3.2 13.9999 3.2Z" stroke="#667685" stroke-width="0.2"/>
<path d="M21.0999 2.1C21.0999 2.70751 20.6074 3.2 19.9999 3.2C19.3924 3.2 18.8999 2.70751 18.8999 2.1C18.8999 1.49249 19.3924 1 19.9999 1C20.6074 1 21.0999 1.49249 21.0999 2.1Z" stroke="#667685" stroke-width="0.2"/>
</svg>
