<svg width="14" height="15" viewBox="0 0 14 15" fill="none" xmlns="http://www.w3.org/2000/svg">
<path fill-rule="evenodd" clip-rule="evenodd" d="M6.68615 0.313333C6.49083 0.118129 6.17425 0.118224 5.97904 0.313545C5.78384 0.508866 5.78393 0.825448 5.97926 1.02065L6.79581 1.83671C5.44126 1.8815 4.13697 2.37154 3.08657 3.23395C1.98357 4.13956 1.22882 5.3997 0.950994 6.79954C0.673171 8.19938 0.889478 9.65225 1.56304 10.9104C2.2366 12.1686 3.3257 13.1543 4.64468 13.6993C5.96366 14.2443 7.43084 14.315 8.79609 13.8992C10.1613 13.4835 11.3401 12.6071 12.1315 11.4194C12.9228 10.2318 13.2778 8.80645 13.1358 7.38639C12.9937 5.96633 12.3636 4.63948 11.3527 3.63207C11.1571 3.43714 10.8405 3.43768 10.6456 3.63328C10.4507 3.82887 10.4512 4.14545 10.6468 4.34038C11.4938 5.18443 12.0217 6.29611 12.1407 7.4859C12.2597 8.67568 11.9623 9.86989 11.2993 10.8649C10.6363 11.86 9.64864 12.5943 8.50478 12.9426C7.36092 13.2909 6.13166 13.2317 5.02657 12.7751C3.92148 12.3184 3.00899 11.4927 2.44466 10.4385C1.88032 9.38432 1.69909 8.16705 1.93186 6.99421C2.16463 5.82137 2.79699 4.76558 3.72113 4.00682C4.5906 3.29296 5.6677 2.88362 6.7879 2.83768L5.97915 3.64644C5.78389 3.8417 5.78389 4.15828 5.97915 4.35355C6.17441 4.54881 6.49099 4.54881 6.68626 4.35355L8.34213 2.69767C8.43561 2.60977 8.49525 2.48631 8.49945 2.34889C8.49962 2.34358 8.4997 2.33825 8.4997 2.33292C8.49968 2.20028 8.44696 2.07309 8.35315 1.97933L6.68615 0.313333Z" fill="white"/>
</svg>
