<svg width="13" height="10" viewBox="0 0 13 10" fill="none" xmlns="http://www.w3.org/2000/svg">
<path fill-rule="evenodd" clip-rule="evenodd" d="M9.59998 0.700195C8.18952 0.700195 7.09998 1.78974 7.09998 3.2002C7.09998 4.53706 8.07879 5.58563 9.38193 5.69141C9.31891 6.02167 9.09557 6.3081 8.78693 6.55701C8.42169 6.85156 7.96769 7.06787 7.62119 7.21637L7.61053 7.22131C7.36979 7.34168 7.09998 7.59834 7.09998 8.0002V8.5002C7.09998 8.76434 7.22986 9.01557 7.41483 9.18513C7.59899 9.35394 7.8624 9.46259 8.14093 9.39607C10.5516 8.97321 12.5067 6.67132 12.1993 3.28346C12.0916 1.89162 11.1187 0.808164 9.61423 0.700704L9.60711 0.700195H9.59998ZM3 0.800171C1.57862 0.800171 0.5 2.00096 0.5 3.40017C0.5 4.73553 1.4766 5.78323 2.77754 5.89102C2.70952 6.18204 2.49158 6.46131 2.18695 6.70699C1.82154 7.00167 1.37089 7.21477 1.04506 7.30787L1.02718 7.31297L1.01056 7.32129C0.769814 7.44166 0.5 7.69831 0.5 8.10017V8.60017C0.5 8.8492 0.593682 9.08106 0.766207 9.23633C0.940693 9.39337 1.18163 9.45853 1.44107 9.39602C3.85165 8.97311 5.8067 6.67125 5.4993 3.28343C5.39228 1.89993 4.42299 0.800171 3 0.800171Z" fill="#667685"/>
</svg>
