<svg width="16" height="12" viewBox="0 0 16 12" fill="none" xmlns="http://www.w3.org/2000/svg">
<path fill-rule="evenodd" clip-rule="evenodd" d="M14.3069 6.77414C12.8922 5.49147 10.4461 3.6626 8.00006 3.6626C5.55401 3.6626 3.10795 5.49147 1.69322 6.77414C0.955123 7.44334 0.955123 8.55717 1.69322 9.22637C3.10796 10.509 5.55401 12.3379 8.00006 12.3379C10.4461 12.3379 12.8922 10.509 14.3069 9.22637C15.045 8.55717 15.045 7.44334 14.3069 6.77414ZM8.00005 10.8573C9.578 10.8573 10.8572 9.57814 10.8572 8.00018C10.8572 6.42223 9.578 5.14304 8.00005 5.14304C6.42209 5.14304 5.1429 6.42223 5.1429 8.00018C5.1429 9.57814 6.42209 10.8573 8.00005 10.8573Z" fill="#99A3AD"/>
<circle cx="9.46939" cy="6.53042" r="1.46939" fill="#99A3AD"/>
</svg>
