<svg width="24" height="24" viewBox="0 0 24 24" fill="none" xmlns="http://www.w3.org/2000/svg">
<path d="M10.31 3.5H13.69C16.37 3.5 17.12 3.81944 18.13 4.39841C18.7408 4.76311 19.2471 5.27882 19.6 5.89577C20.18 6.89401 20.5 7.65267 20.5 10.328V13.702C20.5 16.3773 20.18 17.126 19.6 18.1342C19.243 18.7402 18.7371 19.2452 18.13 19.6016C17.13 20.1806 16.37 20.5 13.69 20.5H10.31C7.63 20.4701 6.9 20.1506 5.9 19.5716C5.28196 19.2193 4.76533 18.7139 4.4 18.1042C3.82 17.106 3.5 16.3473 3.5 13.672V10.298C3.5 7.62272 3.82 6.89401 4.4 5.89577C4.76124 5.27508 5.27821 4.75902 5.9 4.39841C6.9 3.81944 7.63 3.5 10.31 3.5Z" stroke="#667685" stroke-width="1.2" stroke-linecap="round" stroke-linejoin="round"/>
<path d="M8.81006 14.1299C9.19689 14.5952 9.68618 14.9646 10.2396 15.2092C10.793 15.4538 11.3956 15.567 12.0001 15.5399C12.6045 15.567 13.2071 15.4538 13.7605 15.2092C14.3139 14.9646 14.8032 14.5952 15.1901 14.1299" stroke="#667685" stroke-width="1.2" stroke-linecap="round" stroke-linejoin="round"/>
<path fill-rule="evenodd" clip-rule="evenodd" d="M9.61006 8.81006C10.0501 8.81006 10.4101 9.41006 10.4101 10.1401C10.4101 10.8701 10.0501 11.4701 9.61006 11.4701C9.17006 11.4701 8.81006 10.8701 8.81006 10.1401C8.81006 9.41006 9.17006 8.81006 9.61006 8.81006ZM14.3901 8.81006C14.8301 8.81006 15.1901 9.41006 15.1901 10.1401C15.1901 10.8701 14.8301 11.4701 14.3901 11.4701C13.9501 11.4701 13.5901 10.8701 13.5901 10.1401C13.5901 9.41006 13.9501 8.81006 14.3901 8.81006Z" fill="#667685"/>
<path d="M12 15.6502C12.1867 17.0435 12.8533 17.6235 14 17.3902C14.93 17.1602 15.23 16.2502 14.88 14.6602" stroke="#667685" stroke-width="1.2" stroke-linecap="round" stroke-linejoin="round"/>
</svg>
