<svg width="24" height="24" viewBox="0 0 24 24" fill="none" xmlns="http://www.w3.org/2000/svg">
<path fill-rule="evenodd" clip-rule="evenodd" d="M5.6 6.3C5.6 7.01797 5.01797 7.6 4.3 7.6C3.58203 7.6 3 7.01797 3 6.3C3 5.58203 3.58203 5 4.3 5C5.01797 5 5.6 5.58203 5.6 6.3ZM5.6 11.8C5.6 12.518 5.01797 13.1 4.3 13.1C3.58203 13.1 3 12.518 3 11.8C3 11.082 3.58203 10.5 4.3 10.5C5.01797 10.5 5.6 11.082 5.6 11.8ZM4.3 18.6C5.01797 18.6 5.6 18.018 5.6 17.3C5.6 16.582 5.01797 16 4.3 16C3.58203 16 3 16.582 3 17.3C3 18.018 3.58203 18.6 4.3 18.6ZM8.59998 5.69999C8.2686 5.69999 7.99998 5.96862 7.99998 6.29999C7.99998 6.63136 8.2686 6.89999 8.59998 6.89999H20.6C20.9313 6.89999 21.2 6.63136 21.2 6.29999C21.2 5.96862 20.9313 5.69999 20.6 5.69999H8.59998ZM7.99998 17.3C7.99998 16.9686 8.2686 16.7 8.59998 16.7H20.6C20.9313 16.7 21.2 16.9686 21.2 17.3C21.2 17.6314 20.9313 17.9 20.6 17.9H8.59998C8.2686 17.9 7.99998 17.6314 7.99998 17.3ZM8.59998 11.2C8.2686 11.2 7.99998 11.4686 7.99998 11.8C7.99998 12.1314 8.2686 12.4 8.59998 12.4H20.5C20.8313 12.4 21.1 12.1314 21.1 11.8C21.1 11.4686 20.8313 11.2 20.5 11.2H8.59998Z" fill="white"/>
</svg>
