<svg width="16" height="16" viewBox="0 0 16 16" fill="none" xmlns="http://www.w3.org/2000/svg">
<path d="M13.5 8C13.5 11.0376 11.0376 13.5 8 13.5C4.96243 13.5 2.5 11.0376 2.5 8C2.5 4.96243 4.96243 2.5 8 2.5C11.0376 2.5 13.5 4.96243 13.5 8Z" fill="#F9ECB5" stroke="#EA8E44"/>
<path d="M10.8878 6.17233C10.7088 5.97632 10.3794 5.94253 10.1518 6.09667C10.1518 6.09667 7.29752 8.16243 7.21497 8.22471L6.0911 7.37132C5.85896 7.19465 5.50668 7.17952 5.2533 7.34915C4.96722 7.54094 4.91573 7.89638 5.13846 8.14272L6.57947 9.73725C6.58601 9.74429 6.59418 9.75309 6.60113 9.76013C6.88394 10.0466 7.38294 10.0814 7.7156 9.8379L10.8494 6.76883L10.8588 6.76004C11.0329 6.59991 11.05 6.35005 10.8878 6.17233Z" fill="#EA8E44"/>
</svg>
