<?xml version="1.0" encoding="UTF-8"?>
<!DOCTYPE svg PUBLIC "-//W3C//DTD SVG 1.1//EN" "http://www.w3.org/Graphics/SVG/1.1/DTD/svg11.dtd">
<svg xmlns="http://www.w3.org/2000/svg" version="1.1" width="4000px" height="4000px" style="shape-rendering:geometricPrecision; text-rendering:geometricPrecision; image-rendering:optimizeQuality; fill-rule:evenodd; clip-rule:evenodd" xmlns:xlink="http://www.w3.org/1999/xlink">
<g><path style="opacity:0.779" fill="#020706" d="M 1910.5,-0.5 C 1970.17,-0.5 2029.83,-0.5 2089.5,-0.5C 2528.72,22.6841 2919.05,170.851 3260.5,444C 3551.67,682.614 3761.17,979.447 3889,1334.5C 3951.95,1514.77 3988.79,1700.1 3999.5,1890.5C 3999.5,1963.5 3999.5,2036.5 3999.5,2109.5C 3974.91,2510.17 3844.41,2871.51 3608,3193.5C 3384.6,3490.88 3101.1,3711.05 2757.5,3854C 2549.48,3938.3 2333.48,3986.8 2109.5,3999.5C 2036.5,3999.5 1963.5,3999.5 1890.5,3999.5C 1435.38,3970.5 1035.38,3809 690.5,3515C 407.333,3267.7 207.5,2964.53 91,2605.5C 38.1415,2437.34 7.64148,2265.34 -0.5,2089.5C -0.5,2029.83 -0.5,1970.17 -0.5,1910.5C 22.6841,1471.28 170.851,1080.95 444,739.5C 666.494,467.716 940.994,266.549 1267.5,136C 1474.46,55.3761 1688.79,9.87615 1910.5,-0.5 Z"/></g>
<g><path style="opacity:1" fill="#01913f" d="M 1938.5,1.5 C 2342.24,-8.07551 2715.57,92.7578 3058.5,304C 3398.71,519.873 3653.21,810.706 3822,1176.5C 3972.72,1514.83 4027.05,1868.16 3985,2236.5C 3939.6,2601.44 3805.93,2929.11 3584,3219.5C 3343.26,3528.52 3038.43,3750.02 2669.5,3884C 2348.44,3996.31 2019.77,4026.31 1683.5,3974C 1287.32,3907.89 941.987,3740.56 647.5,3472C 399.688,3242.04 219.855,2966.87 108,2646.5C 2.52751,2332.23 -24.8058,2011.23 26,1683.5C 93.3968,1281.07 264.73,931.4 540,634.5C 789.162,370.238 1088.66,185.738 1438.5,81C 1601.99,33.6704 1768.65,7.17044 1938.5,1.5 Z"/></g>
<g><path style="opacity:1" fill="#fcfdfc" d="M 1960.5,374.5 C 1956.03,373.514 1951.36,373.181 1946.5,373.5C 1946.5,363.167 1946.5,352.833 1946.5,342.5C 1946.64,296.823 1947.31,251.156 1948.5,205.5C 1961.5,205.5 1974.5,205.5 1987.5,205.5C 1987.07,227.165 1986.74,248.832 1986.5,270.5C 2007.18,270.295 2027.85,270.628 2048.5,271.5C 2048.33,249.822 2048.67,228.156 2049.5,206.5C 2061.88,206.187 2074.22,206.52 2086.5,207.5C 2086.83,220 2087.17,232.5 2087.5,245C 2086.89,288.836 2086.23,332.669 2085.5,376.5C 2072.48,376.711 2059.48,376.378 2046.5,375.5C 2046.94,352.169 2047.27,328.835 2047.5,305.5C 2026.84,304.951 2006.17,304.617 1985.5,304.5C 1985.64,327.843 1985.3,351.176 1984.5,374.5C 1976.5,374.5 1968.5,374.5 1960.5,374.5 Z"/></g>
<g><path style="opacity:1" fill="#fcfdfc" d="M 1861.5,207.5 C 1872.17,207.333 1882.84,207.5 1893.5,208C 1897.9,208.746 1902.23,209.746 1906.5,211C 1907.11,212.231 1907.44,213.564 1907.5,215C 1905.89,224.137 1904.56,233.304 1903.5,242.5C 1891.3,239.847 1878.97,239.014 1866.5,240C 1835.28,245.935 1820.45,264.768 1822,296.5C 1826.12,336.822 1848.28,353.988 1888.5,348C 1896.62,346.126 1904.62,343.959 1912.5,341.5C 1914.35,349.568 1916.52,357.568 1919,365.5C 1919.81,367.579 1919.64,369.579 1918.5,371.5C 1890.48,383.758 1861.81,385.592 1832.5,377C 1802.74,364.368 1785.91,341.868 1782,309.5C 1778.56,252.006 1805.06,218.006 1861.5,207.5 Z"/></g>
<g><path style="opacity:1" fill="#fcfdfc" d="M 2167.5,211.5 C 2181.49,213.573 2195.49,215.573 2209.5,217.5C 2216.5,262.009 2222.33,306.675 2227,351.5C 2243.18,309.799 2261.02,268.799 2280.5,228.5C 2281.67,228.167 2282.83,227.833 2284,227.5C 2288.16,228.073 2292.32,228.573 2296.5,229C 2304.96,230.103 2313.29,231.603 2321.5,233.5C 2295.06,286.043 2268.9,338.71 2243,391.5C 2242.11,392.081 2241.11,392.415 2240,392.5C 2225.83,390.452 2211.66,388.452 2197.5,386.5C 2187.5,328.167 2177.5,269.833 2167.5,211.5 Z"/></g>
<g><path style="opacity:1" fill="#fcfdfc" d="M 1732.5,224.5 C 1734.83,224.5 1737.17,224.5 1739.5,224.5C 1747.94,280.154 1756.28,335.821 1764.5,391.5C 1751.81,393.371 1739.14,395.371 1726.5,397.5C 1717.67,341.524 1709,285.524 1700.5,229.5C 1711.4,228.461 1722.06,226.794 1732.5,224.5 Z"/></g>
<g><path style="opacity:1" fill="#fcfdfc" d="M 2355.5,240.5 C 2368.4,242.924 2381.06,246.09 2393.5,250C 2386.09,280.798 2378.59,311.631 2371,342.5C 2368.14,353.423 2367.81,364.423 2370,375.5C 2373.98,386.477 2381.82,392.643 2393.5,394C 2409.34,394.849 2419.84,387.683 2425,372.5C 2434.74,336.653 2443.9,300.653 2452.5,264.5C 2465.27,266.197 2477.93,269.197 2490.5,273.5C 2483.02,302.765 2475.85,332.098 2469,361.5C 2453.95,421.276 2417.78,439.442 2360.5,416C 2342.79,406.437 2332.62,391.604 2330,371.5C 2329.22,362.126 2329.56,352.793 2331,343.5C 2338.72,309.052 2346.89,274.719 2355.5,240.5 Z"/></g>
<g><path style="opacity:1" fill="#fcfdfc" d="M 1590.5,251.5 C 1640.89,247.085 1671.73,269.418 1683,318.5C 1691.05,363.913 1674.21,396.08 1632.5,415C 1607.85,425.06 1582.35,430.893 1556,432.5C 1543.37,379.701 1530.87,326.868 1518.5,274C 1518.59,272.893 1518.92,271.893 1519.5,271C 1542.64,262.135 1566.31,255.635 1590.5,251.5 Z"/></g>
<g><path style="opacity:1" fill="#02923f" d="M 1586.5,282.5 C 1613.07,280.259 1630.9,291.592 1640,316.5C 1653.2,363.45 1635.7,390.116 1587.5,396.5C 1579.25,361.327 1570.92,326.16 1562.5,291C 1563.44,289.523 1564.78,288.523 1566.5,288C 1573.29,286.139 1579.96,284.306 1586.5,282.5 Z"/></g>
<g><path style="opacity:1" fill="#fcfdfc" d="M 2566.5,295.5 C 2579.81,300.493 2593.14,305.493 2606.5,310.5C 2608.71,336.775 2609.88,363.109 2610,389.5C 2627.5,370.667 2645,351.833 2662.5,333C 2676.54,336.792 2690.2,341.792 2703.5,348C 2674.67,372.167 2645.83,396.333 2617,420.5C 2609.33,440.833 2601.67,461.167 2594,481.5C 2593.52,483.478 2592.35,484.811 2590.5,485.5C 2579.5,481.336 2568.5,477.17 2557.5,473C 2556.98,472.439 2556.64,471.772 2556.5,471C 2564.9,449.12 2572.9,427.12 2580.5,405C 2575.5,368.543 2570.84,332.043 2566.5,295.5 Z"/></g>
<g><path style="opacity:1" fill="#fcfdfd" d="M 1412.5,302.5 C 1414.45,302.227 1415.95,302.893 1417,304.5C 1436.97,355.611 1456.81,406.778 1476.5,458C 1476.18,459.653 1475.18,460.653 1473.5,461C 1462.72,464.873 1452.05,469.039 1441.5,473.5C 1432.41,451.643 1423.57,429.643 1415,407.5C 1395.88,415.263 1376.71,422.929 1357.5,430.5C 1365.97,451.944 1374.31,473.444 1382.5,495C 1382.09,495.945 1381.43,496.612 1380.5,497C 1369.27,501.63 1357.94,505.63 1346.5,509C 1326.27,456.811 1305.94,404.644 1285.5,352.5C 1297.55,347.04 1309.88,342.373 1322.5,338.5C 1330.03,358.423 1337.36,378.423 1344.5,398.5C 1364.2,391.481 1383.53,383.648 1402.5,375C 1395.02,355.884 1387.69,336.717 1380.5,317.5C 1380.59,315.575 1381.59,314.408 1383.5,314C 1393.39,310.433 1403.05,306.6 1412.5,302.5 Z"/></g>
<g><path style="opacity:1" fill="#a7c9ae" d="M 1946.5,342.5 C 1946.5,352.833 1946.5,363.167 1946.5,373.5C 1951.36,373.181 1956.03,373.514 1960.5,374.5C 1955.5,374.5 1950.5,374.5 1945.5,374.5C 1945.17,363.654 1945.51,352.987 1946.5,342.5 Z"/></g>
<g><path style="opacity:1" fill="#fdfdfd" d="M 1237.5,373.5 C 1238.68,373.281 1239.68,373.614 1240.5,374.5C 1265.73,423.792 1291.06,472.959 1316.5,522C 1314.29,524.458 1311.62,526.458 1308.5,528C 1299.96,532.608 1291.29,536.608 1282.5,540C 1271.79,519.421 1260.96,498.921 1250,478.5C 1231.72,488.056 1213.55,497.722 1195.5,507.5C 1206.02,528.047 1216.69,548.547 1227.5,569C 1216.71,575.478 1205.54,581.312 1194,586.5C 1193.23,586.355 1192.56,586.022 1192,585.5C 1166.76,536.01 1141.26,486.676 1115.5,437.5C 1126.72,430.555 1138.39,424.722 1150.5,420C 1159.95,439.07 1169.78,457.903 1180,476.5C 1198.57,467.468 1216.73,457.802 1234.5,447.5C 1224.83,428.833 1215.17,410.167 1205.5,391.5C 1215.87,384.981 1226.54,378.981 1237.5,373.5 Z"/></g>
<g><path style="opacity:1" fill="#fcfdfd" d="M 2762.5,375.5 C 2801.58,394.541 2840.25,414.375 2878.5,435C 2873.7,444.768 2868.54,454.268 2863,463.5C 2849.52,456.762 2836.19,449.762 2823,442.5C 2802.33,483.183 2781.16,523.517 2759.5,563.5C 2748.01,557.922 2736.68,552.089 2725.5,546C 2746.3,505.997 2766.97,465.83 2787.5,425.5C 2774.78,418.389 2761.95,411.389 2749,404.5C 2752.89,394.71 2757.39,385.044 2762.5,375.5 Z"/></g>
<g><path style="opacity:1" fill="#fcfdfc" d="M 1745.5,413.5 C 1765.09,412.918 1771.93,421.918 1766,440.5C 1759.01,447.991 1750.84,449.491 1741.5,445C 1734.01,438.006 1732.51,429.84 1737,420.5C 1739.44,417.546 1742.27,415.213 1745.5,413.5 Z"/></g>
<g><path style="opacity:1" fill="#fbfcfb" d="M 2368.5,439.5 C 2385.35,438.179 2392.85,445.846 2391,462.5C 2384.91,474.138 2376.08,476.971 2364.5,471C 2357.01,464.006 2355.51,455.84 2360,446.5C 2362.44,443.546 2365.27,441.213 2368.5,439.5 Z"/></g>
<g><path style="opacity:1" fill="#f9fbf9" d="M 2960.5,439.5 C 2969.14,443.239 2977.3,447.906 2985,453.5C 2986.78,466.515 2987.62,479.515 2987.5,492.5C 2980.83,488.167 2974.17,483.833 2967.5,479.5C 2966.24,473.228 2965.57,466.895 2965.5,460.5C 2959.49,462.339 2953.65,464.672 2948,467.5C 2940.91,463.373 2934.08,458.873 2927.5,454C 2938.61,449.248 2949.61,444.415 2960.5,439.5 Z"/></g>
<g><path style="opacity:1" fill="#f9fbfa" d="M 3019.5,451.5 C 3029.44,456.808 3039.11,462.641 3048.5,469C 3034.76,471.535 3020.93,473.701 3007,475.5C 3000.56,473.528 2994.72,470.361 2989.5,466C 2999.44,460.863 3009.44,456.03 3019.5,451.5 Z"/></g>
<g><path style="opacity:1" fill="#fdfdfd" d="M 2907.5,452.5 C 2937.45,470.477 2967.11,488.977 2996.5,508C 2990.96,516.918 2985.29,525.752 2979.5,534.5C 2960.92,522.958 2942.42,511.292 2924,499.5C 2917.78,508.766 2911.95,518.266 2906.5,528C 2906.64,528.772 2906.98,529.439 2907.5,530C 2924.54,540.179 2941.2,550.845 2957.5,562C 2952.38,571.069 2946.88,579.902 2941,588.5C 2923.5,577.75 2906.16,566.75 2889,555.5C 2881.97,566.367 2875.14,577.367 2868.5,588.5C 2887.63,601.236 2906.96,613.736 2926.5,626C 2920.96,634.918 2915.29,643.752 2909.5,652.5C 2878.8,633.822 2848.47,614.655 2818.5,595C 2848.05,547.404 2877.71,499.904 2907.5,452.5 Z"/></g>
<g><path style="opacity:1" fill="#fdfdfd" d="M 1071.5,462.5 C 1102.65,509.167 1133.65,556.001 1164.5,603C 1154.18,611.589 1143.02,619.089 1131,625.5C 1089.05,604.769 1048.22,582.602 1008.5,559C 1032.48,592.149 1055.48,625.982 1077.5,660.5C 1068.39,667.894 1058.73,674.561 1048.5,680.5C 1017.51,633.87 986.513,587.203 955.5,540.5C 967.317,531.423 979.65,523.09 992.5,515.5C 1017.11,527.137 1041.44,539.304 1065.5,552C 1080.09,560.207 1094.25,569.041 1108,578.5C 1085.36,547.304 1063.53,515.304 1042.5,482.5C 1052.21,475.775 1061.87,469.109 1071.5,462.5 Z"/></g>
<g><path style="opacity:1" fill="#fefefe" d="M 2504.5,586.5 C 2504.61,587.117 2504.94,587.617 2505.5,588C 2594,618.911 2678.67,658.578 2759.5,707C 2761.15,707.608 2762.82,708.108 2764.5,708.5C 2765.66,710.25 2767.33,711.25 2769.5,711.5C 2770.66,713.25 2772.33,714.25 2774.5,714.5C 2787.29,723.56 2800.63,731.893 2814.5,739.5C 2824.98,747.575 2835.98,754.908 2847.5,761.5C 2851.3,765.237 2855.64,768.237 2860.5,770.5C 2872.14,779.654 2884.14,788.321 2896.5,796.5C 2897.26,798.262 2898.6,799.262 2900.5,799.5C 2905.62,804.558 2911.28,808.891 2917.5,812.5C 2919.95,815.556 2922.95,817.889 2926.5,819.5C 2932.79,825.311 2939.46,830.645 2946.5,835.5C 2949.61,839.215 2953.27,842.215 2957.5,844.5C 2966.2,852.535 2975.2,860.202 2984.5,867.5C 2986.57,870.573 2989.24,872.906 2992.5,874.5C 2994.9,877.903 2997.9,880.57 3001.5,882.5C 3004.23,886.234 3007.56,889.234 3011.5,891.5C 3015.23,896.23 3019.56,900.23 3024.5,903.5C 3031.17,910.833 3038.17,917.833 3045.5,924.5C 3048.5,929.5 3052.5,933.5 3057.5,936.5C 3058.83,937.167 3059.83,938.167 3060.5,939.5C 3064.77,945.442 3069.77,950.776 3075.5,955.5C 3082.5,962.167 3089.5,968.833 3096.5,975.5C 3099.77,980.44 3103.77,984.773 3108.5,988.5C 3110.77,992.436 3113.77,995.769 3117.5,998.5C 3129.8,1013.47 3142.47,1028.13 3155.5,1042.5C 3157.78,1046.73 3160.78,1050.39 3164.5,1053.5C 3176.13,1069.13 3188.13,1084.46 3200.5,1099.5C 3200.74,1101.4 3201.74,1102.74 3203.5,1103.5C 3222.51,1130.84 3241.51,1158.17 3260.5,1185.5C 3359.52,1340.17 3428.52,1507.5 3467.5,1687.5C 3519.63,1941.82 3508.3,2193.15 3433.5,2441.5C 3397.22,2558.17 3347.89,2669.17 3285.5,2774.5C 3283.59,2775.49 3282.59,2777.15 3282.5,2779.5C 3279.11,2783.25 3276.45,2787.58 3274.5,2792.5C 3216.64,2883.41 3150.31,2968.08 3075.5,3046.5C 3065.5,3055.83 3055.83,3065.5 3046.5,3075.5C 2984.12,3134.73 2917.79,3188.89 2847.5,3238C 2824.84,3253.14 2802.17,3267.98 2779.5,3282.5C 2761.47,3293.18 2743.14,3303.35 2724.5,3313C 2723.62,3313.71 2722.95,3314.54 2722.5,3315.5C 2698.07,3328.21 2673.41,3340.71 2648.5,3353C 2580.8,3384.4 2511.47,3411.57 2440.5,3434.5C 2197.21,3506.74 1950.88,3518.74 1701.5,3470.5C 1482.14,3424.79 1282.81,3335.79 1103.5,3203.5C 1102.74,3201.74 1101.4,3200.74 1099.5,3200.5C 1084.46,3188.13 1069.13,3176.13 1053.5,3164.5C 1050.39,3160.78 1046.73,3157.78 1042.5,3155.5C 1028.13,3142.47 1013.47,3129.8 998.5,3117.5C 991.139,3110.14 983.472,3103.14 975.5,3096.5C 968.833,3089.5 962.167,3082.5 955.5,3075.5C 950.776,3069.77 945.442,3064.77 939.5,3060.5C 938.167,3059.83 937.167,3058.83 936.5,3057.5C 933.5,3052.5 929.5,3048.5 924.5,3045.5C 917.833,3038.17 910.833,3031.17 903.5,3024.5C 900.23,3019.56 896.23,3015.23 891.5,3011.5C 889.234,3007.56 886.234,3004.23 882.5,3001.5C 877.865,2995.53 872.865,2989.86 867.5,2984.5C 860.202,2975.2 852.535,2966.2 844.5,2957.5C 842.215,2953.27 839.215,2949.61 835.5,2946.5C 830.645,2939.46 825.311,2932.79 819.5,2926.5C 817.889,2922.95 815.556,2919.95 812.5,2917.5C 808.891,2911.28 804.558,2905.62 799.5,2900.5C 799.262,2898.6 798.262,2897.26 796.5,2896.5C 788.321,2884.14 779.654,2872.14 770.5,2860.5C 768.237,2855.64 765.237,2851.3 761.5,2847.5C 754.908,2835.98 747.575,2824.98 739.5,2814.5C 735.33,2806.82 730.663,2799.49 725.5,2792.5C 723.582,2787.66 720.916,2783.32 717.5,2779.5C 717.25,2777.33 716.25,2775.66 714.5,2774.5C 714.25,2772.33 713.25,2770.66 711.5,2769.5C 711.25,2767.33 710.25,2765.66 708.5,2764.5C 708.108,2762.82 707.608,2761.15 707,2759.5C 650.329,2663.77 605.162,2563.1 571.5,2457.5C 506.589,2252.32 486.089,2042.65 510,1828.5C 535.673,1610.64 604.84,1407.97 717.5,1220.5C 725.581,1209.35 732.914,1197.68 739.5,1185.5C 758.493,1158.17 777.493,1130.84 796.5,1103.5C 798.262,1102.74 799.262,1101.4 799.5,1099.5C 814.874,1080.79 829.874,1061.79 844.5,1042.5C 852.535,1033.8 860.202,1024.8 867.5,1015.5C 870.573,1013.43 872.906,1010.76 874.5,1007.5C 877.903,1005.1 880.57,1002.1 882.5,998.5C 890.198,991.411 897.198,983.744 903.5,975.5C 903.5,974.833 903.833,974.5 904.5,974.5C 912.167,967.167 919.833,959.833 927.5,952.5C 936.167,944.5 944.5,936.167 952.5,927.5C 967.833,912.5 983.167,897.5 998.5,882.5C 1002.1,880.57 1005.1,877.903 1007.5,874.5C 1010.76,872.906 1013.43,870.573 1015.5,867.5C 1024.8,860.202 1033.8,852.535 1042.5,844.5C 1046.73,842.215 1050.39,839.215 1053.5,835.5C 1060.54,830.645 1067.21,825.311 1073.5,819.5C 1077.05,817.889 1080.05,815.556 1082.5,812.5C 1088.72,808.891 1094.38,804.558 1099.5,799.5C 1101.4,799.262 1102.74,798.262 1103.5,796.5C 1109.04,793.564 1114.04,789.897 1118.5,785.5C 1126.04,781.233 1133.04,776.233 1139.5,770.5C 1144.36,768.237 1148.7,765.237 1152.5,761.5C 1164.02,754.908 1175.02,747.575 1185.5,739.5C 1286.65,674.93 1393.98,622.596 1507.5,582.5C 1799.49,484.482 2094.49,474.315 2392.5,552C 2430.24,562.415 2467.57,573.915 2504.5,586.5 Z"/></g>
<g><path style="opacity:1" fill="#121511" d="M 2505.5,586.5 C 2505.17,586.5 2504.83,586.5 2504.5,586.5C 2467.57,573.915 2430.24,562.415 2392.5,552C 2094.49,474.315 1799.49,484.482 1507.5,582.5C 1507.5,582.167 1507.5,581.833 1507.5,581.5C 1772.21,491.206 2041.54,474.706 2315.5,532C 2380.21,545.839 2443.54,564.005 2505.5,586.5 Z"/></g>
<g><path style="opacity:1" fill="#fdfdfd" d="M 925.5,560.5 C 933.493,567.841 940.493,576.174 946.5,585.5C 935.15,595.514 923.483,605.181 911.5,614.5C 939.833,649.833 968.167,685.167 996.5,720.5C 986.963,728.853 977.13,736.853 967,744.5C 938.195,710.018 909.695,675.184 881.5,640C 880.833,639.333 880.167,639.333 879.5,640C 868.61,649.228 857.443,658.061 846,666.5C 838.835,658.709 832.002,650.542 825.5,642C 859.087,615.054 892.42,587.887 925.5,560.5 Z"/></g>
<g><path style="opacity:1" fill="#fdfdfd" d="M 3077.5,565.5 C 3078.55,565.351 3079.55,565.517 3080.5,566C 3089.71,574.051 3099.05,581.884 3108.5,589.5C 3095.17,606.167 3081.83,622.833 3068.5,639.5C 3083.88,653.409 3099.88,666.242 3116.5,678C 3128.33,663.5 3140.17,649 3152,634.5C 3153.68,632.649 3155.52,630.982 3157.5,629.5C 3167.39,637.272 3177.06,645.272 3186.5,653.5C 3151.19,697.312 3115.69,740.978 3080,784.5C 3069.85,776.513 3060.01,768.179 3050.5,759.5C 3064.98,741.189 3079.64,723.022 3094.5,705C 3078.68,691.926 3062.68,679.093 3046.5,666.5C 3031.5,684.5 3016.5,702.5 3001.5,720.5C 2991.51,712.511 2981.85,704.178 2972.5,695.5C 3007.55,652.129 3042.55,608.795 3077.5,565.5 Z"/></g>
<g><path style="opacity:1" fill="#1d211b" d="M 2504.5,586.5 C 2504.83,586.5 2505.17,586.5 2505.5,586.5C 2596.16,618.331 2682.49,658.998 2764.5,708.5C 2762.82,708.108 2761.15,707.608 2759.5,707C 2678.67,658.578 2594,618.911 2505.5,588C 2504.94,587.617 2504.61,587.117 2504.5,586.5 Z"/></g>
<g><path style="opacity:1" fill="#131a14" d="M 1507.5,581.5 C 1507.5,581.833 1507.5,582.167 1507.5,582.5C 1393.98,622.596 1286.65,674.93 1185.5,739.5C 1285.97,673.603 1393.3,620.936 1507.5,581.5 Z"/></g>
<g><path style="opacity:1" fill="#fcfdfc" d="M 775.5,686.5 C 777.48,687.848 778.647,689.848 779,692.5C 788.464,726.558 798.131,760.558 808,794.5C 824.5,811 841,827.5 857.5,844C 848.292,853.041 839.292,862.208 830.5,871.5C 814.014,855.514 797.681,839.347 781.5,823C 745.399,812.466 709.399,801.633 673.5,790.5C 679.851,783.984 686.017,777.317 692,770.5C 695.749,766.244 699.916,762.578 704.5,759.5C 728.627,768.481 752.46,778.148 776,788.5C 766.094,764.835 756.261,741.001 746.5,717C 755.993,706.674 765.66,696.507 775.5,686.5 Z"/></g>
<g><path style="opacity:1" fill="#fcfdfd" d="M 3223.5,687.5 C 3233.43,695.757 3242.76,704.757 3251.5,714.5C 3226.13,740.373 3200.63,766.04 3175,791.5C 3171.49,796.51 3168.49,801.843 3166,807.5C 3163.23,824.457 3169.73,836.29 3185.5,843C 3194.83,844.716 3203.49,843.049 3211.5,838C 3218.46,832.708 3225.13,827.042 3231.5,821C 3252.37,799.792 3273.54,778.959 3295,758.5C 3304.67,766.672 3313.51,775.672 3321.5,785.5C 3296.71,809.792 3272.04,834.292 3247.5,859C 3209.41,889.394 3174.57,885.894 3143,848.5C 3126.81,828.155 3124.14,806.155 3135,782.5C 3138.5,776.156 3142.5,770.156 3147,764.5C 3172.65,739.019 3198.15,713.353 3223.5,687.5 Z"/></g>
<g><path style="opacity:1" fill="#121a13" d="M 2764.5,708.5 C 2766.67,708.75 2768.34,709.75 2769.5,711.5C 2767.33,711.25 2765.66,710.25 2764.5,708.5 Z"/></g>
<g><path style="opacity:1" fill="#121a13" d="M 2769.5,711.5 C 2771.67,711.75 2773.34,712.75 2774.5,714.5C 2772.33,714.25 2770.66,713.25 2769.5,711.5 Z"/></g>
<g><path style="opacity:1" fill="#161e17" d="M 2774.5,714.5 C 2788.51,721.835 2801.85,730.169 2814.5,739.5C 2800.63,731.893 2787.29,723.56 2774.5,714.5 Z"/></g>
<g><path style="opacity:1" fill="#131a14" d="M 1185.5,739.5 C 1175.02,747.575 1164.02,754.908 1152.5,761.5C 1162.95,753.39 1173.95,746.056 1185.5,739.5 Z"/></g>
<g><path style="opacity:1" fill="#151e17" d="M 2814.5,739.5 C 2826.05,746.056 2837.05,753.39 2847.5,761.5C 2835.98,754.908 2824.98,747.575 2814.5,739.5 Z"/></g>
<g><path style="opacity:1" fill="#161b15" d="M 1152.5,761.5 C 1148.7,765.237 1144.36,768.237 1139.5,770.5C 1143.3,766.763 1147.64,763.763 1152.5,761.5 Z"/></g>
<g><path style="opacity:1" fill="#161d17" d="M 2847.5,761.5 C 2852.36,763.763 2856.7,766.763 2860.5,770.5C 2855.64,768.237 2851.3,765.237 2847.5,761.5 Z"/></g>
<g><path style="opacity:1" fill="#151e16" d="M 2860.5,770.5 C 2873.22,778.19 2885.22,786.856 2896.5,796.5C 2884.14,788.321 2872.14,779.654 2860.5,770.5 Z"/></g>
<g><path style="opacity:1" fill="#141a14" d="M 1139.5,770.5 C 1133.04,776.233 1126.04,781.233 1118.5,785.5C 1124.96,779.767 1131.96,774.767 1139.5,770.5 Z"/></g>
<g><path style="opacity:1" fill="#161a15" d="M 1118.5,785.5 C 1114.04,789.897 1109.04,793.564 1103.5,796.5C 1107.96,792.103 1112.96,788.436 1118.5,785.5 Z"/></g>
<g><path style="opacity:1" fill="#131812" d="M 1103.5,796.5 C 1102.74,798.262 1101.4,799.262 1099.5,799.5C 1100.26,797.738 1101.6,796.738 1103.5,796.5 Z"/></g>
<g><path style="opacity:1" fill="#141d15" d="M 2896.5,796.5 C 2898.4,796.738 2899.74,797.738 2900.5,799.5C 2898.6,799.262 2897.26,798.262 2896.5,796.5 Z"/></g>
<g><path style="opacity:1" fill="#141a15" d="M 1099.5,799.5 C 1094.38,804.558 1088.72,808.891 1082.5,812.5C 1087.62,807.442 1093.28,803.109 1099.5,799.5 Z"/></g>
<g><path style="opacity:1" fill="#151d16" d="M 2900.5,799.5 C 2906.72,803.109 2912.38,807.442 2917.5,812.5C 2911.28,808.891 2905.62,804.558 2900.5,799.5 Z"/></g>
<g><path style="opacity:1" fill="#fdfdfd" d="M 657.5,807.5 C 658.922,807.709 660.255,808.209 661.5,809C 668.833,815.333 676.167,821.667 683.5,828C 673.833,839.667 664.167,851.333 654.5,863C 689.671,892.008 724.671,921.175 759.5,950.5C 751.511,960.487 743.178,970.153 734.5,979.5C 699.5,950.833 664.5,922.167 629.5,893.5C 619.823,904.874 610.157,916.207 600.5,927.5C 592.021,920.856 583.688,914.022 575.5,907C 603.423,874.251 630.756,841.084 657.5,807.5 Z"/></g>
<g><path style="opacity:1" fill="#141a14" d="M 1082.5,812.5 C 1080.05,815.556 1077.05,817.889 1073.5,819.5C 1075.95,816.444 1078.95,814.111 1082.5,812.5 Z"/></g>
<g><path style="opacity:1" fill="#131c15" d="M 2917.5,812.5 C 2921.05,814.111 2924.05,816.444 2926.5,819.5C 2922.95,817.889 2919.95,815.556 2917.5,812.5 Z"/></g>
<g><path style="opacity:1" fill="#fdfdfd" d="M 3351.5,822.5 C 3352.82,822.33 3353.99,822.663 3355,823.5C 3376.5,849.833 3398,876.167 3419.5,902.5C 3411.5,909.167 3403.5,915.833 3395.5,922.5C 3381.18,906.005 3367.01,889.339 3353,872.5C 3343.89,879.307 3335.06,886.474 3326.5,894C 3339.69,909.688 3352.69,925.521 3365.5,941.5C 3357.82,948.514 3349.82,955.18 3341.5,961.5C 3328.26,946.018 3315.26,930.351 3302.5,914.5C 3292.23,921.932 3282.4,929.932 3273,938.5C 3272.33,939.167 3272.33,939.833 3273,940.5C 3287.41,957.65 3301.57,974.983 3315.5,992.5C 3307.82,999.514 3299.82,1006.18 3291.5,1012.5C 3268.12,985.382 3245.45,957.716 3223.5,929.5C 3224.95,927.543 3226.62,925.71 3228.5,924C 3269.69,890.302 3310.69,856.469 3351.5,822.5 Z"/></g>
<g><path style="opacity:1" fill="#121c15" d="M 1073.5,819.5 C 1067.21,825.311 1060.54,830.645 1053.5,835.5C 1059.43,829.208 1066.09,823.875 1073.5,819.5 Z"/></g>
<g><path style="opacity:1" fill="#f9fbfa" d="M 3368.5,826.5 C 3382.18,826.167 3395.85,826.501 3409.5,827.5C 3415.19,834.021 3420.69,840.688 3426,847.5C 3424.71,861.299 3422.37,874.965 3419,888.5C 3413.71,881.54 3408.04,874.873 3402,868.5C 3402.45,861.754 3403.61,855.087 3405.5,848.5C 3398.52,847.669 3391.52,847.169 3384.5,847C 3378.93,840.272 3373.59,833.439 3368.5,826.5 Z"/></g>
<g><path style="opacity:1" fill="#131e16" d="M 2926.5,819.5 C 2933.91,823.875 2940.57,829.208 2946.5,835.5C 2939.46,830.645 2932.79,825.311 2926.5,819.5 Z"/></g>
<g><path style="opacity:1" fill="#151b16" d="M 1053.5,835.5 C 1050.39,839.215 1046.73,842.215 1042.5,844.5C 1045.61,840.785 1049.27,837.785 1053.5,835.5 Z"/></g>
<g><path style="opacity:1" fill="#151f17" d="M 2946.5,835.5 C 2950.73,837.785 2954.39,840.785 2957.5,844.5C 2953.27,842.215 2949.61,839.215 2946.5,835.5 Z"/></g>
<g><path style="opacity:1" fill="#161f18" d="M 2957.5,844.5 C 2967.39,851.048 2976.39,858.715 2984.5,867.5C 2975.2,860.202 2966.2,852.535 2957.5,844.5 Z"/></g>
<g><path style="opacity:1" fill="#151b15" d="M 1042.5,844.5 C 1033.8,852.535 1024.8,860.202 1015.5,867.5C 1023.61,858.715 1032.61,851.048 1042.5,844.5 Z"/></g>
<g><path style="opacity:1" fill="#121e16" d="M 2984.5,867.5 C 2987.76,869.094 2990.43,871.427 2992.5,874.5C 2989.24,872.906 2986.57,870.573 2984.5,867.5 Z"/></g>
<g><path style="opacity:1" fill="#151a15" d="M 1015.5,867.5 C 1013.43,870.573 1010.76,872.906 1007.5,874.5C 1009.57,871.427 1012.24,869.094 1015.5,867.5 Z"/></g>
<g><path style="opacity:1" fill="#171c17" d="M 1007.5,874.5 C 1005.1,877.903 1002.1,880.57 998.5,882.5C 1000.9,879.097 1003.9,876.43 1007.5,874.5 Z"/></g>
<g><path style="opacity:1" fill="#191e18" d="M 2992.5,874.5 C 2996.1,876.43 2999.1,879.097 3001.5,882.5C 2997.9,880.57 2994.9,877.903 2992.5,874.5 Z"/></g>
<g><path style="opacity:1" fill="#181e18" d="M 3001.5,882.5 C 3005.44,884.766 3008.77,887.766 3011.5,891.5C 3007.56,889.234 3004.23,886.234 3001.5,882.5 Z"/></g>
<g><path style="opacity:1" fill="#19211a" d="M 3011.5,891.5 C 3016.44,894.77 3020.77,898.77 3024.5,903.5C 3019.56,900.23 3015.23,896.23 3011.5,891.5 Z"/></g>
<g><path style="opacity:1" fill="#1c201a" d="M 3024.5,903.5 C 3032.45,909.776 3039.78,916.776 3046.5,924.5C 3046.17,924.5 3045.83,924.5 3045.5,924.5C 3038.17,917.833 3031.17,910.833 3024.5,903.5 Z"/></g>
<g><path style="opacity:1" fill="#162d1f" d="M 3046.5,924.5 C 3064.53,940.2 3081.2,957.2 3096.5,975.5C 3089.5,968.833 3082.5,962.167 3075.5,955.5C 3071.23,949.558 3066.23,944.224 3060.5,939.5C 3059.83,938.167 3058.83,937.167 3057.5,936.5C 3053.83,932.5 3050.17,928.5 3046.5,924.5 Z"/></g>
<g><path style="opacity:0.988" fill="#c2a9a8" d="M 3045.5,924.5 C 3045.83,924.5 3046.17,924.5 3046.5,924.5C 3050.17,928.5 3053.83,932.5 3057.5,936.5C 3052.5,933.5 3048.5,929.5 3045.5,924.5 Z"/></g>
<g><path style="opacity:1" fill="#db2220" d="M 1367.5,927.5 C 1428.11,927.388 1486.44,938.888 1542.5,962C 1685.14,1021.16 1814.48,1100.83 1930.5,1201C 1940.33,1210.83 1950.17,1220.67 1960,1230.5C 1965.45,1236.61 1970.11,1243.28 1974,1250.5C 1974.77,1253.1 1974.6,1255.6 1973.5,1258C 1966.7,1258.78 1960.03,1258.11 1953.5,1256C 1907.05,1238.78 1860.38,1222.11 1813.5,1206C 1761,1188.75 1707.34,1176.75 1652.5,1170C 1540.85,1157.38 1462.02,1201.88 1416,1303.5C 1389.88,1362.9 1380.21,1424.9 1387,1489.5C 1389.73,1512.4 1393.73,1535.07 1399,1557.5C 1414.82,1622.95 1433.48,1687.62 1455,1751.5C 1498.98,1859.8 1549.65,1964.8 1607,2066.5C 1626.44,2099.73 1648.11,2131.4 1672,2161.5C 1741.05,2247.95 1814.21,2331.12 1891.5,2411C 1925.53,2442.7 1959.87,2474.04 1994.5,2505C 1990.62,2504.57 1986.95,2503.24 1983.5,2501C 1943.35,2475.84 1904.02,2449.51 1865.5,2422C 1766.56,2351.74 1669.9,2278.4 1575.5,2202C 1467.19,2111.37 1370.36,2010.2 1285,1898.5C 1224.95,1816.97 1175.62,1728.97 1137,1634.5C 1112.72,1566.09 1096.72,1495.76 1089,1423.5C 1079.54,1349.63 1078.21,1275.63 1085,1201.5C 1089.53,1158.9 1101.53,1118.57 1121,1080.5C 1178.15,989.573 1260.32,938.573 1367.5,927.5 Z"/></g>
<g><path style="opacity:0.992" fill="#d0b6b6" d="M 952.5,927.5 C 944.5,936.167 936.167,944.5 927.5,952.5C 934.574,943.922 942.24,935.755 950.5,928C 951.094,927.536 951.761,927.369 952.5,927.5 Z"/></g>
<g><path style="opacity:0.992" fill="#c4aaa9" d="M 3060.5,939.5 C 3066.23,944.224 3071.23,949.558 3075.5,955.5C 3069.77,950.776 3064.77,945.442 3060.5,939.5 Z"/></g>
<g><path style="opacity:1" fill="#db2220" d="M 2722.5,946.5 C 2744.17,946.333 2765.84,946.5 2787.5,947C 2900.09,951.179 2967.59,1008.35 2990,1118.5C 2998.96,1169.82 3001.62,1221.48 2998,1273.5C 2985.99,1486.85 2925.99,1685.52 2818,1869.5C 2755.14,1975.4 2681.14,2073.06 2596,2162.5C 2527.78,2232.27 2456.62,2298.43 2382.5,2361C 2251.48,2470.71 2118.14,2577.37 1982.5,2681C 1960.34,2696.91 1938.01,2712.58 1915.5,2728C 1909.13,2732.36 1902.3,2735.86 1895,2738.5C 1894.5,2738.17 1894,2737.83 1893.5,2737.5C 1897.94,2730.29 1903.11,2723.62 1909,2717.5C 2009.89,2615.64 2105.22,2509.3 2195,2398.5C 2292.32,2276.92 2378.99,2147.92 2455,2011.5C 2522.95,1888.59 2576.29,1759.59 2615,1624.5C 2627.79,1578.87 2637.13,1532.54 2643,1485.5C 2645.76,1455.52 2646.09,1425.52 2644,1395.5C 2640.41,1357.38 2627.74,1322.72 2606,1291.5C 2584.08,1265.28 2556.58,1247.45 2523.5,1238C 2472.5,1223.43 2420.5,1218.1 2367.5,1222C 2296.43,1227.08 2227.77,1242.75 2161.5,1269C 2132.17,1280.55 2103.17,1292.89 2074.5,1306C 2065.56,1310.32 2056.23,1312.98 2046.5,1314C 2043.79,1312.14 2042.96,1309.64 2044,1306.5C 2050.4,1293.43 2058.4,1281.43 2068,1270.5C 2115.68,1219.64 2168.18,1174.81 2225.5,1136C 2321.8,1069.35 2426.13,1018.35 2538.5,983C 2598.75,964.716 2660.09,952.549 2722.5,946.5 Z"/></g>
<g><path style="opacity:1" fill="#1e251e" d="M 998.5,882.5 C 983.167,897.5 967.833,912.5 952.5,927.5C 951.761,927.369 951.094,927.536 950.5,928C 942.24,935.755 934.574,943.922 927.5,952.5C 919.833,959.833 912.167,967.167 904.5,974.5C 933.694,941.585 965.027,910.918 998.5,882.5 Z"/></g>
<g><path style="opacity:1" fill="#fcfdfc" d="M 529.5,978.5 C 530.552,978.351 531.552,978.517 532.5,979C 539.352,986.351 546.019,993.851 552.5,1001.5C 536.329,1013.82 524.496,1029.49 517,1048.5C 511.84,1070.02 517.673,1087.85 534.5,1102C 554.176,1118.12 575.509,1120.79 598.5,1110C 609.883,1102.1 618.05,1091.6 623,1078.5C 623.781,1077.06 623.614,1075.72 622.5,1074.5C 613.248,1068.62 604.081,1062.62 595,1056.5C 590.273,1062.9 585.94,1069.56 582,1076.5C 581.439,1077.02 580.772,1077.36 580,1077.5C 571.744,1072.91 563.744,1067.91 556,1062.5C 555.685,1061.09 556.018,1059.76 557,1058.5C 567.375,1042.25 577.875,1026.08 588.5,1010C 590.289,1009.48 591.956,1009.81 593.5,1011C 616.745,1026.54 640.245,1041.71 664,1056.5C 657.026,1088.28 641.86,1115.45 618.5,1138C 586.939,1162.49 554.272,1163.82 520.5,1142C 482.454,1115.19 471.287,1079.69 487,1035.5C 496.341,1012.78 510.508,993.78 529.5,978.5 Z"/></g>
<g><path style="opacity:1" fill="#fbfcfb" d="M 3223.5,978.5 C 3238.63,976.803 3246.46,983.47 3247,998.5C 3242.25,1011.46 3233.41,1015.63 3220.5,1011C 3212.09,1003.97 3210.26,995.466 3215,985.5C 3217.44,982.546 3220.27,980.213 3223.5,978.5 Z"/></g>
<g><path style="opacity:1" fill="#162018" d="M 3096.5,975.5 C 3101.23,979.227 3105.23,983.56 3108.5,988.5C 3103.77,984.773 3099.77,980.44 3096.5,975.5 Z"/></g>
<g><path style="opacity:1" fill="#1b1f1a" d="M 903.5,975.5 C 897.198,983.744 890.198,991.411 882.5,998.5C 888.802,990.256 895.802,982.589 903.5,975.5 Z"/></g>
<g><path style="opacity:1" fill="#fdfdfd" d="M 3476.5,982.5 C 3477.5,982.414 3478.33,982.748 3479,983.5C 3485.08,993.338 3491.42,1003 3498,1012.5C 3498.75,1013.64 3498.58,1014.64 3497.5,1015.5C 3460.25,1039.71 3423.08,1064.04 3386,1088.5C 3385.33,1089.5 3385.33,1090.5 3386,1091.5C 3397.7,1109.03 3409.2,1126.7 3420.5,1144.5C 3412.22,1150.98 3403.55,1156.98 3394.5,1162.5C 3374.68,1133.55 3355.35,1104.21 3336.5,1074.5C 3383.2,1043.82 3429.86,1013.16 3476.5,982.5 Z"/></g>
<g><path style="opacity:1" fill="#161f18" d="M 3108.5,988.5 C 3112.23,991.231 3115.23,994.564 3117.5,998.5C 3113.77,995.769 3110.77,992.436 3108.5,988.5 Z"/></g>
<g><path style="opacity:1" fill="#171c17" d="M 882.5,998.5 C 880.57,1002.1 877.903,1005.1 874.5,1007.5C 876.43,1003.9 879.097,1000.9 882.5,998.5 Z"/></g>
<g><path style="opacity:1" fill="#151b15" d="M 874.5,1007.5 C 872.906,1010.76 870.573,1013.43 867.5,1015.5C 869.094,1012.24 871.427,1009.57 874.5,1007.5 Z"/></g>
<g><path style="opacity:1" fill="#161f18" d="M 3117.5,998.5 C 3131.28,1012.28 3143.95,1026.94 3155.5,1042.5C 3142.47,1028.13 3129.8,1013.47 3117.5,998.5 Z"/></g>
<g><path style="opacity:1" fill="#151d16" d="M 867.5,1015.5 C 860.202,1024.8 852.535,1033.8 844.5,1042.5C 851.048,1032.61 858.715,1023.61 867.5,1015.5 Z"/></g>
<g><path style="opacity:1" fill="#141e16" d="M 844.5,1042.5 C 829.874,1061.79 814.874,1080.79 799.5,1099.5C 813.364,1079.63 828.364,1060.63 844.5,1042.5 Z"/></g>
<g><path style="opacity:1" fill="#161f17" d="M 3155.5,1042.5 C 3159.22,1045.61 3162.22,1049.27 3164.5,1053.5C 3160.78,1050.39 3157.78,1046.73 3155.5,1042.5 Z"/></g>
<g><path style="opacity:1" fill="#141d16" d="M 3164.5,1053.5 C 3177.64,1067.97 3189.64,1083.3 3200.5,1099.5C 3188.13,1084.46 3176.13,1069.13 3164.5,1053.5 Z"/></g>
<g><path style="opacity:1" fill="#fcfdfd" d="M 3549.5,1098.5 C 3551.62,1099.03 3553.12,1100.36 3554,1102.5C 3558.83,1112.16 3564.16,1121.49 3570,1130.5C 3570.69,1131.33 3570.52,1132 3569.5,1132.5C 3520.83,1160.17 3472.17,1187.83 3423.5,1215.5C 3417.13,1204.96 3410.97,1194.3 3405,1183.5C 3404.38,1182.55 3404.55,1181.72 3405.5,1181C 3453.73,1153.73 3501.73,1126.23 3549.5,1098.5 Z"/></g>
<g><path style="opacity:1" fill="#131712" d="M 799.5,1099.5 C 799.262,1101.4 798.262,1102.74 796.5,1103.5C 796.738,1101.6 797.738,1100.26 799.5,1099.5 Z"/></g>
<g><path style="opacity:1" fill="#131712" d="M 3200.5,1099.5 C 3202.26,1100.26 3203.26,1101.6 3203.5,1103.5C 3201.74,1102.74 3200.74,1101.4 3200.5,1099.5 Z"/></g>
<g><path style="opacity:1" fill="#fcfdfc" d="M 427.5,1132.5 C 477.559,1157.03 527.559,1181.86 577.5,1207C 578.517,1208.05 578.684,1209.22 578,1210.5C 571.785,1221.53 566.285,1232.86 561.5,1244.5C 514.49,1247.07 467.49,1247.9 420.5,1247C 457.534,1264.02 494.201,1281.85 530.5,1300.5C 531.583,1301.36 531.749,1302.36 531,1303.5C 526,1313.5 521,1323.5 516,1333.5C 466.12,1308.48 416.287,1283.31 366.5,1258C 365.483,1256.95 365.316,1255.78 366,1254.5C 372.117,1241.76 378.617,1229.26 385.5,1217C 429.483,1213.81 473.483,1212.81 517.5,1214C 482.108,1199.31 447.442,1182.97 413.5,1165C 412.483,1163.95 412.316,1162.78 413,1161.5C 417.847,1151.81 422.68,1142.14 427.5,1132.5 Z"/></g>
<g><path style="opacity:1" fill="#141c16" d="M 3203.5,1103.5 C 3212.8,1114.74 3221.63,1126.41 3230,1138.5C 3240.69,1153.88 3250.85,1169.55 3260.5,1185.5C 3241.51,1158.17 3222.51,1130.84 3203.5,1103.5 Z"/></g>
<g><path style="opacity:1" fill="#131a14" d="M 796.5,1103.5 C 777.493,1130.84 758.493,1158.17 739.5,1185.5C 749.148,1169.55 759.314,1153.88 770,1138.5C 778.368,1126.41 787.201,1114.74 796.5,1103.5 Z"/></g>
<g><path style="opacity:1" fill="#fcfdfd" d="M 3590.5,1172.5 C 3591.82,1172.33 3592.99,1172.66 3594,1173.5C 3600.17,1186.5 3606.33,1199.5 3612.5,1212.5C 3594.19,1238.64 3575.69,1264.64 3557,1290.5C 3548.47,1300 3540.47,1309.67 3533,1319.5C 3566.31,1299.93 3600.81,1282.59 3636.5,1267.5C 3637.17,1267.83 3637.83,1268.17 3638.5,1268.5C 3643.58,1278.15 3648.24,1287.98 3652.5,1298C 3602.83,1322.5 3552.83,1346.5 3502.5,1370C 3501.5,1370.67 3500.5,1370.67 3499.5,1370C 3493.71,1358.24 3488.04,1346.41 3482.5,1334.5C 3501.81,1307.36 3521.31,1280.36 3541,1253.5C 3548.81,1243.39 3556.98,1233.56 3565.5,1224C 3529.1,1241.7 3492.43,1259.2 3455.5,1276.5C 3450.21,1266.14 3445.21,1255.64 3440.5,1245C 3442.8,1242.84 3445.47,1241.18 3448.5,1240C 3496.05,1217.73 3543.38,1195.23 3590.5,1172.5 Z"/></g>
<g><path style="opacity:1" fill="#141a14" d="M 739.5,1185.5 C 732.914,1197.68 725.581,1209.35 717.5,1220.5C 724.05,1208.3 731.383,1196.63 739.5,1185.5 Z"/></g>
<g><path style="opacity:1" fill="#141c15" d="M 3260.5,1185.5 C 3360.52,1338.93 3429.85,1505.6 3468.5,1685.5C 3467.66,1685.84 3467.33,1686.51 3467.5,1687.5C 3428.52,1507.5 3359.52,1340.17 3260.5,1185.5 Z"/></g>
<g><path style="opacity:1" fill="#fcfdfd" d="M 378.5,1318.5 C 415.183,1316.77 445.683,1329.44 470,1356.5C 487.518,1381.9 490.185,1408.9 478,1437.5C 460.114,1474.7 430.614,1490.2 389.5,1484C 365.421,1479.71 345.254,1468.55 329,1450.5C 303.936,1414.79 304.603,1379.46 331,1344.5C 343.693,1329.95 359.526,1321.28 378.5,1318.5 Z"/></g>
<g><path style="opacity:1" fill="#f9fbfa" d="M 323.5,1331.5 C 324.097,1331.74 324.43,1332.24 324.5,1333C 321.402,1340.79 318.402,1348.63 315.5,1356.5C 309.167,1359.17 302.833,1361.83 296.5,1364.5C 299.833,1370.17 303.167,1375.83 306.5,1381.5C 303.164,1389.84 299.831,1398.18 296.5,1406.5C 290,1395.5 283.5,1384.5 277,1373.5C 279.341,1363.81 282.508,1354.31 286.5,1345C 299.047,1340.77 311.38,1336.27 323.5,1331.5 Z"/></g>
<g><path style="opacity:1" fill="#fcfdfc" d="M 3669.5,1345.5 C 3671.34,1346.12 3672.5,1347.46 3673,1349.5C 3676.14,1359.24 3679.47,1368.91 3683,1378.5C 3683.78,1379.94 3683.61,1381.28 3682.5,1382.5C 3663.27,1389.61 3643.94,1396.45 3624.5,1403C 3623.98,1403.56 3623.64,1404.23 3623.5,1405C 3630.14,1423.76 3636.47,1442.59 3642.5,1461.5C 3662.54,1455.04 3682.54,1448.37 3702.5,1441.5C 3704.43,1441.59 3705.59,1442.59 3706,1444.5C 3709.5,1455.01 3713,1465.51 3716.5,1476C 3716.36,1476.77 3716.02,1477.44 3715.5,1478C 3662.58,1496.47 3609.58,1514.64 3556.5,1532.5C 3553.2,1520.43 3549.2,1508.59 3544.5,1497C 3566.57,1488.42 3588.91,1480.42 3611.5,1473C 3604.6,1453.47 3597.6,1433.97 3590.5,1414.5C 3568.24,1422.47 3545.91,1430.13 3523.5,1437.5C 3520.1,1425.31 3516.1,1413.31 3511.5,1401.5C 3564.17,1382.61 3616.83,1363.95 3669.5,1345.5 Z"/></g>
<g><path style="opacity:1" fill="#02923f" d="M 374.5,1358.5 C 402.917,1357.13 426.75,1366.8 446,1387.5C 456.447,1404.72 454.947,1420.88 441.5,1436C 428.388,1444.8 414.055,1447.46 398.5,1444C 379.762,1440.22 363.929,1431.38 351,1417.5C 338.835,1400.01 340.002,1383.51 354.5,1368C 360.601,1363.45 367.268,1360.28 374.5,1358.5 Z"/></g>
<g><path style="opacity:1" fill="#da221f" d="M 1845.5,1375.5 C 1969.5,1375.5 2093.5,1375.5 2217.5,1375.5C 2217.5,1444.83 2217.5,1514.17 2217.5,1583.5C 2286.83,1583.5 2356.17,1583.5 2425.5,1583.5C 2425.5,1707.5 2425.5,1831.5 2425.5,1955.5C 2356.17,1955.5 2286.83,1955.5 2217.5,1955.5C 2217.5,2024.83 2217.5,2094.17 2217.5,2163.5C 2093.5,2163.5 1969.5,2163.5 1845.5,2163.5C 1845.5,2094.17 1845.5,2024.83 1845.5,1955.5C 1776.17,1955.5 1706.83,1955.5 1637.5,1955.5C 1637.5,1831.5 1637.5,1707.5 1637.5,1583.5C 1706.83,1583.5 1776.17,1583.5 1845.5,1583.5C 1845.5,1514.17 1845.5,1444.83 1845.5,1375.5 Z"/></g>
<g><path style="opacity:1" fill="#fcfdfc" d="M 287.5,1472.5 C 296.944,1477.44 306.277,1482.6 315.5,1488C 300.025,1508.04 295.858,1530.21 303,1554.5C 310.66,1569.09 322.493,1578.59 338.5,1583C 380.846,1591.73 404.679,1574.56 410,1531.5C 410.499,1525.51 410.666,1519.51 410.5,1513.5C 420.853,1513.98 431.186,1514.65 441.5,1515.5C 443.626,1546.33 435.793,1574.33 418,1599.5C 398.33,1621.39 373.83,1630.23 344.5,1626C 317.748,1622.19 296.248,1609.69 280,1588.5C 266.494,1566.13 262.494,1542.13 268,1516.5C 271.551,1500.41 278.051,1485.74 287.5,1472.5 Z"/></g>
<g><path style="opacity:1" fill="#111310" d="M 3468.5,1685.5 C 3517.29,1921.91 3511.13,2156.91 3450,2390.5C 3445.3,2408.1 3440.13,2425.43 3434.5,2442.5C 3434.5,2441.83 3434.17,2441.5 3433.5,2441.5C 3508.3,2193.15 3519.63,1941.82 3467.5,1687.5C 3467.33,1686.51 3467.66,1685.84 3468.5,1685.5 Z"/></g>
<g><path style="opacity:1" fill="#00923f" d="M 655.5,1766.5 C 662.674,1766.46 669.341,1768.29 675.5,1772C 694.317,1786.48 710.817,1803.32 725,1822.5C 765.624,1878.7 800.957,1938.37 831,2001.5C 839,2018.83 847,2036.17 855,2053.5C 873.139,2096.25 891.472,2138.92 910,2181.5C 943.768,2252.51 985.434,2318.18 1035,2378.5C 1041.57,2385.74 1048.74,2392.24 1056.5,2398C 1058.13,2398.49 1059.8,2398.66 1061.5,2398.5C 1061.8,2387.48 1059.96,2376.81 1056,2366.5C 1046.06,2338.68 1035.73,2311.01 1025,2283.5C 1017.27,2256.2 1015.27,2228.53 1019,2200.5C 1024.67,2180.27 1037.17,2174.44 1056.5,2183C 1069.3,2189.48 1081.3,2197.15 1092.5,2206C 1117.76,2226.71 1140.92,2249.55 1162,2274.5C 1179.24,2295.99 1196.24,2317.65 1213,2339.5C 1237.91,2370.41 1266.07,2397.91 1297.5,2422C 1334.55,2447.25 1374.88,2465.59 1418.5,2477C 1460.14,2486.83 1501.8,2496.49 1543.5,2506C 1638.88,2538.57 1717.05,2594.74 1778,2674.5C 1793.49,2700.61 1806.49,2727.95 1817,2756.5C 1840.87,2822.31 1860.87,2889.31 1877,2957.5C 1882.9,2987.66 1889.57,3017.66 1897,3047.5C 1900.65,3066.11 1903.99,3084.77 1907,3103.5C 1910.67,3116.54 1908.67,3128.54 1901,3139.5C 1891.09,3150.4 1879.26,3158.56 1865.5,3164C 1810.35,3184.02 1754.35,3186.68 1697.5,3172C 1669.76,3164.72 1645.92,3150.89 1626,3130.5C 1613.8,3112.1 1603.13,3092.77 1594,3072.5C 1577.94,3026.03 1553.94,2984.36 1522,2947.5C 1477.13,2895.27 1425.63,2851.11 1367.5,2815C 1342.5,2799.5 1317.16,2784.5 1291.5,2770C 1241.35,2743.76 1191.69,2716.76 1142.5,2689C 1084.15,2653.02 1031.32,2609.85 984,2559.5C 917.841,2487.2 861.508,2407.86 815,2321.5C 805.667,2303.5 796.333,2285.5 787,2267.5C 744.629,2173.76 705.296,2078.76 669,1982.5C 660.023,1952.59 651.356,1922.59 643,1892.5C 634.098,1857.28 633.432,1821.94 641,1786.5C 643.191,1777.74 648.024,1771.07 655.5,1766.5 Z"/></g>
<g><path style="opacity:1" fill="#00923f" d="M 3333.5,1766.5 C 3345.37,1766.18 3352.87,1771.85 3356,1783.5C 3362.49,1807.48 3364.15,1831.82 3361,1856.5C 3359.65,1868.61 3357.65,1880.61 3355,1892.5C 3346.64,1922.59 3337.98,1952.59 3329,1982.5C 3292.7,2078.76 3253.37,2173.76 3211,2267.5C 3169.59,2352.06 3119.92,2431.06 3062,2504.5C 3013.2,2565.31 2957.36,2618.48 2894.5,2664C 2879.43,2674.06 2864.1,2683.73 2848.5,2693C 2801.49,2719.18 2754.15,2744.84 2706.5,2770C 2659.63,2795.9 2614.63,2824.57 2571.5,2856C 2520.03,2896.47 2475.86,2943.64 2439,2997.5C 2424.92,3021.32 2413.26,3046.32 2404,3072.5C 2394.87,3092.77 2384.2,3112.1 2372,3130.5C 2350.96,3151.78 2325.79,3165.94 2296.5,3173C 2241.65,3186.57 2187.65,3183.91 2134.5,3165C 2120.01,3159.34 2107.51,3150.84 2097,3139.5C 2089.33,3128.54 2087.33,3116.54 2091,3103.5C 2107.68,3007.41 2130.35,2912.75 2159,2819.5C 2170.37,2783.4 2183.7,2748.07 2199,2713.5C 2205.24,2700.02 2212.24,2687.02 2220,2674.5C 2272.04,2605.47 2337.88,2553.97 2417.5,2520C 2430.34,2514.61 2443.34,2509.61 2456.5,2505C 2496.22,2496.26 2535.89,2487.26 2575.5,2478C 2619.41,2467.04 2660.08,2449.04 2697.5,2424C 2730.22,2399.61 2759.39,2371.45 2785,2339.5C 2810.81,2304.43 2838.64,2270.93 2868.5,2239C 2886.67,2221.49 2906,2205.49 2926.5,2191C 2933.99,2186.25 2941.99,2182.59 2950.5,2180C 2966.03,2178.17 2975.53,2185.01 2979,2200.5C 2982.73,2228.53 2980.73,2256.2 2973,2283.5C 2962.27,2311.01 2951.94,2338.68 2942,2366.5C 2938.04,2376.81 2936.2,2387.48 2936.5,2398.5C 2941.06,2398.06 2945.06,2396.22 2948.5,2393C 2975.34,2365.11 2999.18,2334.94 3020,2302.5C 3044.95,2263.62 3067.61,2223.29 3088,2181.5C 3106.53,2138.92 3124.86,2096.25 3143,2053.5C 3176.43,1976.28 3216.76,1903.28 3264,1834.5C 3278.36,1814.47 3294.53,1795.97 3312.5,1779C 3318.93,1773.79 3325.93,1769.62 3333.5,1766.5 Z"/></g>
<g><path style="opacity:1" fill="#131612" d="M 717.5,1220.5 C 604.84,1407.97 535.673,1610.64 510,1828.5C 486.089,2042.65 506.589,2252.32 571.5,2457.5C 571.167,2457.5 570.833,2457.5 570.5,2457.5C 530.58,2334.39 507.414,2208.06 501,2078.5C 486.52,1776.43 555.52,1495.09 708,1234.5C 710.942,1229.59 714.109,1224.93 717.5,1220.5 Z"/></g>
<g><path style="opacity:1" fill="#fdfdfd" d="M 3744.5,1803.5 C 3745.65,1803.79 3746.32,1804.62 3746.5,1806C 3751.4,1829.75 3755.9,1853.59 3760,1877.5C 3762.91,1891.61 3766.24,1905.61 3770,1919.5C 3778.27,1949.43 3797.43,1968.27 3827.5,1976C 3840.02,1979.62 3852.68,1982.62 3865.5,1985C 3891.28,1989.23 3916.95,1994.06 3942.5,1999.5C 3906.77,2006.25 3871.1,2013.42 3835.5,2021C 3819.25,2024.79 3804.58,2031.79 3791.5,2042C 3781.66,2052.5 3774.49,2064.67 3770,2078.5C 3767.33,2089.17 3764.66,2099.84 3762,2110.5C 3756.73,2138.9 3751.23,2167.24 3745.5,2195.5C 3738.84,2160.09 3731.68,2124.75 3724,2089.5C 3717.8,2056.65 3698.97,2035.15 3667.5,2025C 3635.88,2016.62 3603.88,2009.95 3571.5,2005C 3563.98,2003.6 3556.64,2001.77 3549.5,1999.5C 3574.27,1993.71 3599.27,1988.88 3624.5,1985C 3637.19,1982.09 3649.86,1979.09 3662.5,1976C 3687.6,1970.21 3705.44,1955.71 3716,1932.5C 3719.53,1922.23 3722.87,1911.9 3726,1901.5C 3732.28,1868.81 3738.45,1836.15 3744.5,1803.5 Z"/></g>
<g><path style="opacity:1" fill="#fdfdfd" d="M 250.5,1804.5 C 251.649,1804.79 252.316,1805.62 252.5,1807C 257.397,1830.75 261.897,1854.59 266,1878.5C 268.906,1892.61 272.24,1906.61 276,1920.5C 284.267,1950.43 303.433,1969.27 333.5,1977C 346.017,1980.62 358.684,1983.62 371.5,1986C 397.28,1990.23 422.947,1995.06 448.5,2000.5C 412.769,2007.25 377.103,2014.42 341.5,2022C 325.246,2025.79 310.579,2032.79 297.5,2043C 287.66,2053.5 280.493,2065.67 276,2079.5C 273.33,2090.17 270.664,2100.84 268,2111.5C 262.729,2139.9 257.229,2168.24 251.5,2196.5C 244.844,2161.09 237.678,2125.75 230,2090.5C 223.799,2057.65 204.966,2036.15 173.5,2026C 141.879,2017.62 109.879,2010.95 77.5,2006C 69.9752,2004.6 62.6419,2002.77 55.5,2000.5C 80.2669,1994.71 105.267,1989.88 130.5,1986C 143.194,1983.09 155.861,1980.09 168.5,1977C 193.603,1971.21 211.437,1956.71 222,1933.5C 225.535,1923.23 228.868,1912.9 232,1902.5C 238.28,1869.81 244.447,1837.15 250.5,1804.5 Z"/></g>
<g><path style="opacity:1" fill="#736143" d="M 3579.5,2499.5 C 3575.43,2499.31 3571.43,2499.64 3567.5,2500.5C 3567.61,2499.88 3567.94,2499.38 3568.5,2499C 3572.36,2498.19 3576.02,2498.36 3579.5,2499.5 Z"/></g>
<g><path style="opacity:1" fill="#d43747" d="M 484.5,2650.5 C 485.118,2657.82 485.451,2665.15 485.5,2672.5C 486.115,2677.12 484.948,2681.12 482,2684.5C 467.237,2663.72 450.237,2644.72 431,2627.5C 421.701,2617.56 413.368,2606.89 406,2595.5C 394.688,2573.5 390.688,2550.16 394,2525.5C 397.569,2513.8 404.735,2505.3 415.5,2500C 420.833,2499.33 426.167,2499.33 431.5,2500C 432.416,2500.37 433.25,2500.87 434,2501.5C 432.309,2506.23 430.976,2511.23 430,2516.5C 428.626,2531.48 430.46,2545.98 435.5,2560C 439.452,2571.07 444.618,2581.57 451,2591.5C 460.247,2604.33 469.247,2617.33 478,2630.5C 481.075,2636.89 483.241,2643.56 484.5,2650.5 Z"/></g>
<g><path style="opacity:1" fill="#d43747" d="M 3579.5,2499.5 C 3587.64,2500.82 3594.14,2504.82 3599,2511.5C 3606.93,2524.05 3609.59,2537.71 3607,2552.5C 3604.8,2572.69 3597.8,2591.02 3586,2607.5C 3580.24,2614.69 3574.24,2621.69 3568,2628.5C 3549.45,2644.71 3533.45,2663.04 3520,2683.5C 3519,2684.83 3518,2684.83 3517,2683.5C 3514.92,2680.17 3514.09,2676.5 3514.5,2672.5C 3514.55,2665.15 3514.88,2657.82 3515.5,2650.5C 3516.91,2642.78 3519.41,2635.44 3523,2628.5C 3536.59,2610.32 3548.92,2591.32 3560,2571.5C 3564.24,2561.09 3567.41,2550.43 3569.5,2539.5C 3570.82,2536.74 3571.48,2533.58 3571.5,2530C 3571.5,2526.65 3571.16,2523.48 3570.5,2520.5C 3569.9,2514.31 3568.23,2508.48 3565.5,2503C 3565.64,2501.7 3566.31,2500.87 3567.5,2500.5C 3571.43,2499.64 3575.43,2499.31 3579.5,2499.5 Z"/></g>
<g><path style="opacity:1" fill="#a24e45" d="M 345.5,2512.5 C 332.163,2512.33 318.829,2512.5 305.5,2513C 298.915,2514.49 292.248,2515.32 285.5,2515.5C 290.985,2514.1 296.651,2512.93 302.5,2512C 317.006,2511.17 331.339,2511.34 345.5,2512.5 Z"/></g>
<g><path style="opacity:1" fill="#9c5145" d="M 3648.5,2512.5 C 3663.66,2511.34 3678.99,2511.17 3694.5,2512C 3697.04,2512.19 3699.37,2512.69 3701.5,2513.5C 3683.85,2512.66 3666.18,2512.32 3648.5,2512.5 Z"/></g>
<g><path style="opacity:1" fill="#d33847" d="M 345.5,2512.5 C 349.167,2512.5 352.833,2512.5 356.5,2512.5C 360.353,2513.17 364.353,2513.83 368.5,2514.5C 368.137,2515.18 367.804,2515.85 367.5,2516.5C 363.394,2518.39 359.394,2520.55 355.5,2523C 346.385,2528.95 337.719,2535.45 329.5,2542.5C 325.025,2540.02 320.359,2538.02 315.5,2536.5C 311.777,2535 307.777,2534.34 303.5,2534.5C 300.645,2534.5 297.978,2534.84 295.5,2535.5C 267.834,2540.39 256.001,2557.06 260,2585.5C 259.5,2586 259,2586.5 258.5,2587C 250.418,2589.31 242.418,2591.81 234.5,2594.5C 234.194,2591.61 234.527,2588.95 235.5,2586.5C 237.039,2580.06 237.706,2573.4 237.5,2566.5C 237.205,2543.29 247.871,2527.46 269.5,2519C 274.692,2517.2 280.025,2516.04 285.5,2515.5C 292.248,2515.32 298.915,2514.49 305.5,2513C 318.829,2512.5 332.163,2512.33 345.5,2512.5 Z"/></g>
<g><path style="opacity:1" fill="#4e7242" d="M 356.5,2512.5 C 360.833,2512.5 365.167,2512.5 369.5,2512.5C 369.843,2514.48 369.176,2515.82 367.5,2516.5C 367.804,2515.85 368.137,2515.18 368.5,2514.5C 364.353,2513.83 360.353,2513.17 356.5,2512.5 Z"/></g>
<g><path style="opacity:1" fill="#d33847" d="M 388.5,2511.5 C 389.833,2511.5 391.167,2511.5 392.5,2511.5C 389.541,2517.4 386.041,2523.07 382,2528.5C 372.033,2547.45 363.367,2567.11 356,2587.5C 350.925,2598.91 344.592,2609.58 337,2619.5C 333.826,2620.73 330.659,2620.56 327.5,2619C 320.833,2615.67 314.167,2612.33 307.5,2609C 297.745,2603.73 288.412,2597.89 279.5,2591.5C 289.034,2588.07 298.034,2583.57 306.5,2578C 316.194,2569.64 325.194,2560.64 333.5,2551C 350.452,2535.86 368.785,2522.7 388.5,2511.5 Z"/></g>
<g><path style="opacity:1" fill="#d43747" d="M 3710.5,2587.5 C 3712.51,2588.92 3714.85,2589.59 3717.5,2589.5C 3720.11,2590.85 3720.11,2592.35 3717.5,2594C 3709.14,2598.85 3700.81,2603.68 3692.5,2608.5C 3690.03,2608.75 3688.03,2609.75 3686.5,2611.5C 3685.51,2611.33 3684.84,2611.66 3684.5,2612.5C 3682.03,2612.75 3680.03,2613.75 3678.5,2615.5C 3675.91,2616.13 3673.58,2617.3 3671.5,2619C 3668.63,2620.28 3665.8,2620.44 3663,2619.5C 3655.14,2609.79 3648.81,2599.13 3644,2587.5C 3639.26,2575.11 3634.43,2562.78 3629.5,2550.5C 3629.57,2548.97 3628.91,2547.97 3627.5,2547.5C 3622.55,2535.61 3616.05,2524.61 3608,2514.5C 3607.51,2513.21 3607.34,2511.87 3607.5,2510.5C 3630.77,2521.91 3651.77,2536.74 3670.5,2555C 3678.17,2564 3686.5,2572.33 3695.5,2580C 3700.19,2583.21 3705.19,2585.71 3710.5,2587.5 Z"/></g>
<g><path style="opacity:1" fill="#d33847" d="M 3648.5,2512.5 C 3666.18,2512.32 3683.85,2512.66 3701.5,2513.5C 3719.42,2514.31 3735.42,2520.14 3749.5,2531C 3759.08,2540.77 3763.41,2552.6 3762.5,2566.5C 3762.29,2573.4 3762.96,2580.06 3764.5,2586.5C 3765.47,2588.95 3765.81,2591.61 3765.5,2594.5C 3758.1,2591.65 3750.44,2589.48 3742.5,2588C 3741.67,2587.17 3740.83,2586.33 3740,2585.5C 3739.67,2578.17 3739.33,2570.83 3739,2563.5C 3737.14,2553.96 3731.98,2546.79 3723.5,2542C 3719.92,2540.74 3716.59,2539.07 3713.5,2537C 3710.57,2536.05 3707.57,2535.55 3704.5,2535.5C 3702.02,2534.84 3699.36,2534.5 3696.5,2534.5C 3692.22,2534.34 3688.22,2535 3684.5,2536.5C 3680.16,2537.5 3676.16,2539.34 3672.5,2542C 3669.18,2541.74 3666.51,2540.07 3664.5,2537C 3654,2529.92 3643.34,2523.08 3632.5,2516.5C 3631.61,2515.68 3631.28,2514.68 3631.5,2513.5C 3637.19,2513.47 3642.86,2513.13 3648.5,2512.5 Z"/></g>
<g><path style="opacity:1" fill="#a14f46" d="M 3570.5,2520.5 C 3571.16,2523.48 3571.5,2526.65 3571.5,2530C 3571.48,2533.58 3570.82,2536.74 3569.5,2539.5C 3570.32,2533.2 3570.65,2526.87 3570.5,2520.5 Z"/></g>
<g><path style="opacity:1" fill="#556f41" d="M 295.5,2535.5 C 297.978,2534.84 300.645,2534.5 303.5,2534.5C 307.777,2534.34 311.777,2535 315.5,2536.5C 308.852,2535.86 302.186,2535.53 295.5,2535.5 Z"/></g>
<g><path style="opacity:1" fill="#536f41" d="M 3704.5,2535.5 C 3697.81,2535.45 3691.14,2535.79 3684.5,2536.5C 3688.22,2535 3692.22,2534.34 3696.5,2534.5C 3699.36,2534.5 3702.02,2534.84 3704.5,2535.5 Z"/></g>
<g><path style="opacity:1" fill="#ce3b47" d="M 279.5,2567.5 C 276.57,2568.3 273.57,2568.63 270.5,2568.5C 269.088,2564.11 269.588,2559.78 272,2555.5C 275.455,2552.2 279.289,2549.53 283.5,2547.5C 285.967,2547.25 287.967,2546.25 289.5,2544.5C 295.009,2542.88 300.676,2542.21 306.5,2542.5C 300.835,2549.35 294.835,2556.18 288.5,2563C 285.216,2564.03 282.216,2565.53 279.5,2567.5 Z"/></g>
<g><path style="opacity:1" fill="#ce3b47" d="M 3710.5,2544.5 C 3713.04,2546.02 3715.7,2547.35 3718.5,2548.5C 3728.11,2552.22 3731.78,2559.06 3729.5,2569C 3722.87,2569.07 3716.87,2567.07 3711.5,2563C 3705.17,2556.18 3699.17,2549.35 3693.5,2542.5C 3699.32,2542.21 3704.99,2542.88 3710.5,2544.5 Z"/></g>
<g><path style="opacity:1" fill="#5c7042" d="M 3710.5,2544.5 C 3714.02,2544.26 3716.69,2545.59 3718.5,2548.5C 3715.7,2547.35 3713.04,2546.02 3710.5,2544.5 Z"/></g>
<g><path style="opacity:1" fill="#cb3d47" d="M 277.5,2583.5 C 274.545,2584.16 271.545,2584.49 268.5,2584.5C 267.181,2582.39 267.514,2580.39 269.5,2578.5C 278.52,2575.49 287.187,2571.66 295.5,2567C 300.912,2562.26 305.579,2556.93 309.5,2551C 312.952,2549.21 316.118,2547.04 319,2544.5C 319.772,2544.64 320.439,2544.98 321,2545.5C 321.667,2547.17 321.667,2548.83 321,2550.5C 314.149,2559.68 306.316,2567.85 297.5,2575C 290.804,2577.95 284.137,2580.78 277.5,2583.5 Z"/></g>
<g><path style="opacity:1" fill="#c93e47" d="M 3679.5,2544.5 C 3680.55,2544.35 3681.55,2544.52 3682.5,2545C 3690.5,2551.67 3697.83,2559 3704.5,2567C 3712.45,2572.54 3721.11,2576.54 3730.5,2579C 3733.5,2582.16 3733,2584.33 3729,2585.5C 3706.12,2580.93 3689.28,2568.43 3678.5,2548C 3678.65,2546.74 3678.98,2545.58 3679.5,2544.5 Z"/></g>
<g><path style="opacity:1" fill="#8b5a44" d="M 289.5,2544.5 C 287.967,2546.25 285.967,2547.25 283.5,2547.5C 285.033,2545.75 287.033,2544.75 289.5,2544.5 Z"/></g>
<g><path style="opacity:1" fill="#d23947" d="M 384.5,2550.5 C 383.076,2552.51 382.41,2554.85 382.5,2557.5C 381.24,2579.21 377.74,2600.54 372,2621.5C 361.667,2639.83 351.333,2658.17 341,2676.5C 331.955,2694.03 328.288,2712.7 330,2732.5C 331.316,2739.73 333.15,2746.9 335.5,2754C 335.167,2754.83 334.833,2755.67 334.5,2756.5C 325.426,2746.33 318.426,2735 313.5,2722.5C 313.5,2713.17 313.5,2703.83 313.5,2694.5C 314.659,2682.56 317.159,2670.89 321,2659.5C 326.933,2647.91 333.266,2636.58 340,2625.5C 348.023,2614.11 355.523,2602.44 362.5,2590.5C 365.643,2586.76 367.643,2582.42 368.5,2577.5C 371.006,2566.14 375.173,2555.47 381,2545.5C 382.019,2544.31 383.186,2543.31 384.5,2542.5C 385.205,2545.09 385.205,2547.76 384.5,2550.5 Z"/></g>
<g><path style="opacity:1" fill="#d23947" d="M 3631.5,2577.5 C 3632.36,2582.42 3634.36,2586.76 3637.5,2590.5C 3645.71,2603.91 3654.21,2617.24 3663,2630.5C 3671.52,2643.22 3678.19,2656.88 3683,2671.5C 3684.37,2679.17 3685.53,2686.83 3686.5,2694.5C 3686.5,2703.83 3686.5,2713.17 3686.5,2722.5C 3681.57,2735 3674.57,2746.33 3665.5,2756.5C 3665.17,2755.67 3664.83,2754.83 3664.5,2754C 3672.25,2732.99 3672.42,2711.82 3665,2690.5C 3662.49,2684.81 3659.99,2679.14 3657.5,2673.5C 3657.57,2671.97 3656.91,2670.97 3655.5,2670.5C 3646.12,2654.29 3636.96,2637.96 3628,2621.5C 3622.26,2600.54 3618.76,2579.21 3617.5,2557.5C 3617.59,2554.85 3616.92,2552.51 3615.5,2550.5C 3614.8,2547.76 3614.8,2545.09 3615.5,2542.5C 3623.78,2552.74 3629.12,2564.41 3631.5,2577.5 Z"/></g>
<g><path style="opacity:1" fill="#776243" d="M 3627.5,2547.5 C 3628.91,2547.97 3629.57,2548.97 3629.5,2550.5C 3628.09,2550.03 3627.43,2549.03 3627.5,2547.5 Z"/></g>
<g><path style="opacity:1" fill="#736343" d="M 384.5,2550.5 C 384.59,2553.15 383.924,2555.49 382.5,2557.5C 382.41,2554.85 383.076,2552.51 384.5,2550.5 Z"/></g>
<g><path style="opacity:1" fill="#736343" d="M 3615.5,2550.5 C 3616.92,2552.51 3617.59,2554.85 3617.5,2557.5C 3616.08,2555.49 3615.41,2553.15 3615.5,2550.5 Z"/></g>
<g><path style="opacity:1" fill="#d23947" d="M 227.5,2563.5 C 228.5,2563.5 229.5,2563.5 230.5,2563.5C 228.508,2575.44 227.175,2587.44 226.5,2599.5C 216.821,2603.33 207.988,2608.66 200,2615.5C 193.757,2622.75 189.757,2631.08 188,2640.5C 187.439,2641.02 186.772,2641.36 186,2641.5C 173.742,2628.49 171.408,2613.83 179,2597.5C 189.561,2581.81 204.061,2571.97 222.5,2568C 224.66,2567 226.327,2565.5 227.5,2563.5 Z"/></g>
<g><path style="opacity:1" fill="#d23947" d="M 3769.5,2563.5 C 3780.21,2568.03 3790.87,2572.86 3801.5,2578C 3813.04,2584.92 3820.87,2594.76 3825,2607.5C 3827.03,2620.76 3823.36,2632.09 3814,2641.5C 3813.23,2641.36 3812.56,2641.02 3812,2640.5C 3808.96,2625.9 3801.13,2614.74 3788.5,2607C 3783.82,2604.41 3778.99,2602.24 3774,2600.5C 3772.87,2588.16 3771.37,2575.83 3769.5,2563.5 Z"/></g>
<g><path style="opacity:1" fill="#606e41" d="M 279.5,2567.5 C 279.389,2568.12 279.056,2568.62 278.5,2569C 275.633,2569.8 272.966,2569.63 270.5,2568.5C 273.57,2568.63 276.57,2568.3 279.5,2567.5 Z"/></g>
<g><path style="opacity:1" fill="#d53647" d="M 341.5,2700.5 C 342.924,2698.49 343.59,2696.15 343.5,2693.5C 346.779,2683.17 350.946,2673.17 356,2663.5C 363.06,2651.95 369.894,2640.28 376.5,2628.5C 378.975,2627.31 379.975,2625.31 379.5,2622.5C 381.961,2616.32 383.961,2609.99 385.5,2603.5C 387.163,2601.56 387.829,2599.23 387.5,2596.5C 388.062,2589.17 388.728,2581.84 389.5,2574.5C 395.651,2591.14 404.151,2606.47 415,2620.5C 427.937,2635.44 441.603,2649.77 456,2663.5C 463.774,2672.61 470.774,2682.27 477,2692.5C 482.616,2710.05 482.95,2727.72 478,2745.5C 461.3,2775.27 436.8,2795.77 404.5,2807C 373.758,2799.28 352.592,2780.44 341,2750.5C 336.258,2733.65 336.425,2716.98 341.5,2700.5 Z"/></g>
<g><path style="opacity:1" fill="#d53647" d="M 3610.5,2574.5 C 3611.17,2580.83 3611.83,2587.17 3612.5,2593.5C 3612.5,2594.5 3612.5,2595.5 3612.5,2596.5C 3612.17,2599.23 3612.84,2601.56 3614.5,2603.5C 3616.04,2609.99 3618.04,2616.32 3620.5,2622.5C 3620.02,2625.31 3621.02,2627.31 3623.5,2628.5C 3630.15,2641.13 3637.32,2653.47 3645,2665.5C 3649.68,2674.52 3653.51,2683.86 3656.5,2693.5C 3656.41,2696.15 3657.08,2698.49 3658.5,2700.5C 3666.64,2729.61 3661.14,2755.94 3642,2779.5C 3638.5,2783 3635,2786.5 3631.5,2790C 3621.31,2796.62 3610.64,2802.28 3599.5,2807C 3592.76,2806.47 3586.42,2804.47 3580.5,2801C 3554.86,2789.02 3535.36,2770.52 3522,2745.5C 3512.94,2717.81 3517.94,2693.15 3537,2671.5C 3554.73,2653.77 3571.73,2635.43 3588,2616.5C 3597.39,2603.38 3604.89,2589.38 3610.5,2574.5 Z"/></g>
<g><path style="opacity:1" fill="#9c5247" d="M 368.5,2577.5 C 367.643,2582.42 365.643,2586.76 362.5,2590.5C 364.13,2585.92 366.13,2581.59 368.5,2577.5 Z"/></g>
<g><path style="opacity:1" fill="#457641" d="M 3610.5,2574.5 C 3610.56,2573.96 3610.89,2573.62 3611.5,2573.5C 3612.5,2580.13 3612.83,2586.8 3612.5,2593.5C 3611.83,2587.17 3611.17,2580.83 3610.5,2574.5 Z"/></g>
<g><path style="opacity:1" fill="#9c5247" d="M 3631.5,2577.5 C 3633.87,2581.59 3635.87,2585.92 3637.5,2590.5C 3634.36,2586.76 3632.36,2582.42 3631.5,2577.5 Z"/></g>
<g><path style="opacity:1" fill="#915644" d="M 237.5,2566.5 C 237.706,2573.4 237.039,2580.06 235.5,2586.5C 235.207,2579.59 235.874,2572.93 237.5,2566.5 Z"/></g>
<g><path style="opacity:1" fill="#915644" d="M 3762.5,2566.5 C 3764.13,2572.93 3764.79,2579.59 3764.5,2586.5C 3762.96,2580.06 3762.29,2573.4 3762.5,2566.5 Z"/></g>
<g><path style="opacity:1" fill="#616d43" d="M 277.5,2583.5 C 276.054,2584.94 274.221,2585.61 272,2585.5C 270.615,2585.49 269.449,2585.15 268.5,2584.5C 271.545,2584.49 274.545,2584.16 277.5,2583.5 Z"/></g>
<g><path style="opacity:1" fill="#586f43" d="M 3710.5,2587.5 C 3713.15,2587.41 3715.49,2588.08 3717.5,2589.5C 3714.85,2589.59 3712.51,2588.92 3710.5,2587.5 Z"/></g>
<g><path style="opacity:1" fill="#d33847" d="M 323.5,2625.5 C 325.607,2626.47 327.941,2626.8 330.5,2626.5C 330.5,2627.5 330.5,2628.5 330.5,2629.5C 319.477,2641.55 312.144,2655.55 308.5,2671.5C 306.96,2673.84 306.294,2676.5 306.5,2679.5C 304.871,2688.05 304.037,2696.72 304,2705.5C 303.667,2705.17 303.333,2704.83 303,2704.5C 298.503,2690.83 294.17,2677.17 290,2663.5C 283.429,2645.61 273.596,2629.77 260.5,2616C 253.421,2611.13 246.087,2606.8 238.5,2603C 248.772,2595.55 260.106,2593.55 272.5,2597C 286.611,2604.11 299.944,2612.45 312.5,2622C 316.384,2622.72 320.051,2623.88 323.5,2625.5 Z"/></g>
<g><path style="opacity:1" fill="#d33847" d="M 3731.5,2595.5 C 3742.6,2593.94 3752.6,2596.44 3761.5,2603C 3747.34,2608.68 3735.84,2617.85 3727,2630.5C 3720.52,2641.12 3714.86,2652.12 3710,2663.5C 3705.95,2677.7 3701.28,2691.7 3696,2705.5C 3696.49,2682.39 3690.83,2661.06 3679,2641.5C 3676.72,2637.28 3673.72,2633.62 3670,2630.5C 3669.51,2629.21 3669.34,2627.87 3669.5,2626.5C 3671.53,2626.66 3673.53,2626.5 3675.5,2626C 3678.85,2623.91 3682.51,2622.58 3686.5,2622C 3696.5,2615.33 3706.5,2608.67 3716.5,2602C 3721.49,2599.51 3726.49,2597.35 3731.5,2595.5 Z"/></g>
<g><path style="opacity:1" fill="#7f5d42" d="M 387.5,2596.5 C 387.829,2599.23 387.163,2601.56 385.5,2603.5C 385.721,2600.93 386.388,2598.6 387.5,2596.5 Z"/></g>
<g><path style="opacity:1" fill="#7f5d42" d="M 3612.5,2596.5 C 3613.61,2598.6 3614.28,2600.93 3614.5,2603.5C 3612.84,2601.56 3612.17,2599.23 3612.5,2596.5 Z"/></g>
<g><path style="opacity:1" fill="#d23947" d="M 223.5,2608.5 C 235.09,2608.15 245.424,2611.65 254.5,2619C 263.39,2626.3 270.223,2635.13 275,2645.5C 278.568,2655.39 282.401,2665.06 286.5,2674.5C 277.92,2667.84 269.587,2660.67 261.5,2653C 256.487,2649 250.82,2646.33 244.5,2645C 233.801,2644.26 223.134,2644.6 212.5,2646C 205.765,2647.73 199.099,2649.56 192.5,2651.5C 193.82,2630.48 204.154,2616.15 223.5,2608.5 Z"/></g>
<g><path style="opacity:1" fill="#d23947" d="M 3799.5,2649.5 C 3799.03,2648.31 3798.03,2647.64 3796.5,2647.5C 3793.86,2646.9 3791.19,2646.57 3788.5,2646.5C 3774.78,2643.72 3761.12,2643.89 3747.5,2647C 3735.78,2654.89 3725.11,2664.05 3715.5,2674.5C 3719.17,2651.69 3729.83,2632.52 3747.5,2617C 3764.09,2604.8 3779.75,2605.8 3794.5,2620C 3802.76,2628.8 3807.1,2639.3 3807.5,2651.5C 3805.14,2651.66 3802.81,2651.5 3800.5,2651C 3799.94,2650.62 3799.61,2650.12 3799.5,2649.5 Z"/></g>
<g><path style="opacity:1" fill="#1c201a" d="M 570.5,2457.5 C 570.833,2457.5 571.167,2457.5 571.5,2457.5C 605.162,2563.1 650.329,2663.77 707,2759.5C 707.608,2761.15 708.108,2762.82 708.5,2764.5C 664.446,2691.72 627.28,2615.39 597,2535.5C 587.261,2509.78 578.428,2483.78 570.5,2457.5 Z"/></g>
<g><path style="opacity:1" fill="#676a43" d="M 3692.5,2608.5 C 3690.97,2610.25 3688.97,2611.25 3686.5,2611.5C 3688.03,2609.75 3690.03,2608.75 3692.5,2608.5 Z"/></g>
<g><path style="opacity:1" fill="#696843" d="M 3684.5,2612.5 C 3682.97,2614.25 3680.97,2615.25 3678.5,2615.5C 3680.03,2613.75 3682.03,2612.75 3684.5,2612.5 Z"/></g>
<g><path style="opacity:1" fill="#537341" d="M 330.5,2629.5 C 330.5,2628.5 330.5,2627.5 330.5,2626.5C 327.941,2626.8 325.607,2626.47 323.5,2625.5C 326.167,2625.17 328.833,2624.83 331.5,2624.5C 331.784,2626.41 331.451,2628.08 330.5,2629.5 Z"/></g>
<g><path style="opacity:1" fill="#955745" d="M 379.5,2622.5 C 379.975,2625.31 378.975,2627.31 376.5,2628.5C 377.508,2626.46 378.508,2624.46 379.5,2622.5 Z"/></g>
<g><path style="opacity:1" fill="#955745" d="M 3620.5,2622.5 C 3621.49,2624.46 3622.49,2626.46 3623.5,2628.5C 3621.02,2627.31 3620.02,2625.31 3620.5,2622.5 Z"/></g>
<g><path style="opacity:1" fill="#a54f46" d="M 3788.5,2646.5 C 3791.19,2646.57 3793.86,2646.9 3796.5,2647.5C 3798.03,2647.64 3799.03,2648.31 3799.5,2649.5C 3795.6,2648.94 3791.94,2647.94 3788.5,2646.5 Z"/></g>
<g><path style="opacity:1" fill="#d43747" d="M 266.5,2743.5 C 266.59,2740.85 265.924,2738.51 264.5,2736.5C 260.285,2711.01 251.451,2687.34 238,2665.5C 233.965,2661.76 230.131,2657.93 226.5,2654C 226.905,2653.05 227.572,2652.39 228.5,2652C 241.383,2652.27 253.05,2656.27 263.5,2664C 275.966,2675.45 286.132,2688.62 294,2703.5C 302.138,2722.63 312.138,2740.63 324,2757.5C 341.992,2780.4 364.159,2797.9 390.5,2810C 391.925,2811.71 391.592,2813.05 389.5,2814C 326.158,2829.11 285.158,2805.61 266.5,2743.5 Z"/></g>
<g><path style="opacity:1" fill="#d43747" d="M 3735.5,2736.5 C 3734.08,2738.51 3733.41,2740.85 3733.5,2743.5C 3715.18,2804.28 3674.85,2828.11 3612.5,2815C 3608.21,2814.13 3607.54,2812.13 3610.5,2809C 3642.57,2793.93 3668.07,2771.43 3687,2741.5C 3696.37,2721.1 3707.03,2701.43 3719,2682.5C 3729.2,2667.83 3742.7,2657.66 3759.5,2652C 3763.5,2651.33 3767.5,2651.33 3771.5,2652C 3772.43,2652.39 3773.09,2653.05 3773.5,2654C 3769.73,2657.77 3765.9,2661.6 3762,2665.5C 3748.55,2687.34 3739.72,2711.01 3735.5,2736.5 Z"/></g>
<g><path style="opacity:1" fill="#9b5144" d="M 484.5,2650.5 C 485.912,2654.92 486.579,2659.59 486.5,2664.5C 486.497,2667.36 486.164,2670.02 485.5,2672.5C 485.451,2665.15 485.118,2657.82 484.5,2650.5 Z"/></g>
<g><path style="opacity:1" fill="#9b5144" d="M 3515.5,2650.5 C 3514.88,2657.82 3514.55,2665.15 3514.5,2672.5C 3513.84,2670.02 3513.5,2667.36 3513.5,2664.5C 3513.42,2659.59 3514.09,2654.92 3515.5,2650.5 Z"/></g>
<g><path style="opacity:1" fill="#776242" d="M 3655.5,2670.5 C 3656.91,2670.97 3657.57,2671.97 3657.5,2673.5C 3656.09,2673.03 3655.43,2672.03 3655.5,2670.5 Z"/></g>
<g><path style="opacity:1" fill="#5d6e40" d="M 308.5,2671.5 C 308.435,2674.43 307.768,2677.09 306.5,2679.5C 306.294,2676.5 306.96,2673.84 308.5,2671.5 Z"/></g>
<g><path style="opacity:1" fill="#8e5844" d="M 343.5,2693.5 C 343.59,2696.15 342.924,2698.49 341.5,2700.5C 341.41,2697.85 342.076,2695.51 343.5,2693.5 Z"/></g>
<g><path style="opacity:1" fill="#8e5844" d="M 3656.5,2693.5 C 3657.92,2695.51 3658.59,2697.85 3658.5,2700.5C 3657.08,2698.49 3656.41,2696.15 3656.5,2693.5 Z"/></g>
<g><path style="opacity:1" fill="#a54f46" d="M 313.5,2694.5 C 313.5,2703.83 313.5,2713.17 313.5,2722.5C 310.893,2713.17 310.893,2703.84 313.5,2694.5 Z"/></g>
<g><path style="opacity:1" fill="#a54f46" d="M 3686.5,2694.5 C 3689.11,2703.84 3689.11,2713.17 3686.5,2722.5C 3686.5,2713.17 3686.5,2703.83 3686.5,2694.5 Z"/></g>
<g><path style="opacity:1" fill="#1a201a" d="M 3433.5,2441.5 C 3434.17,2441.5 3434.5,2441.83 3434.5,2442.5C 3398.89,2559.71 3349.22,2670.37 3285.5,2774.5C 3347.89,2669.17 3397.22,2558.17 3433.5,2441.5 Z"/></g>
<g><path style="opacity:1" fill="#5c7041" d="M 264.5,2736.5 C 265.924,2738.51 266.59,2740.85 266.5,2743.5C 264.837,2741.56 264.171,2739.23 264.5,2736.5 Z"/></g>
<g><path style="opacity:1" fill="#5c7041" d="M 3735.5,2736.5 C 3735.83,2739.23 3735.16,2741.56 3733.5,2743.5C 3733.41,2740.85 3734.08,2738.51 3735.5,2736.5 Z"/></g>
<g><path style="opacity:1" fill="#121a13" d="M 708.5,2764.5 C 710.25,2765.66 711.25,2767.33 711.5,2769.5C 709.75,2768.34 708.75,2766.67 708.5,2764.5 Z"/></g>
<g><path style="opacity:1" fill="#121a13" d="M 711.5,2769.5 C 713.25,2770.66 714.25,2772.33 714.5,2774.5C 712.75,2773.34 711.75,2771.67 711.5,2769.5 Z"/></g>
<g><path style="opacity:1" fill="#121a13" d="M 714.5,2774.5 C 716.25,2775.66 717.25,2777.33 717.5,2779.5C 715.75,2778.34 714.75,2776.67 714.5,2774.5 Z"/></g>
<g><path style="opacity:1" fill="#1d251d" d="M 3285.5,2774.5 C 3285.25,2776.67 3284.25,2778.34 3282.5,2779.5C 3282.59,2777.15 3283.59,2775.49 3285.5,2774.5 Z"/></g>
<g><path style="opacity:1" fill="#131c15" d="M 717.5,2779.5 C 720.916,2783.32 723.582,2787.66 725.5,2792.5C 722.084,2788.68 719.418,2784.34 717.5,2779.5 Z"/></g>
<g><path style="opacity:1" fill="#0b7a69" d="M 455.5,2785.5 C 457.564,2785.69 459.564,2786.19 461.5,2787C 468.343,2792.18 474.843,2797.68 481,2803.5C 482.873,2807.46 484.54,2811.46 486,2815.5C 488.87,2833.55 491.87,2851.55 495,2869.5C 500.982,2881.14 508.815,2891.31 518.5,2900C 519.448,2900.48 520.448,2900.65 521.5,2900.5C 521.5,2901.5 521.5,2902.5 521.5,2903.5C 504.02,2901.97 488.02,2896.47 473.5,2887C 467.814,2881.12 462.98,2874.62 459,2867.5C 453.271,2854.7 448.271,2841.7 444,2828.5C 441.157,2825.32 437.99,2822.49 434.5,2820C 430.056,2818.89 426.056,2816.89 422.5,2814C 420.254,2812.74 418.921,2810.91 418.5,2808.5C 424.507,2807 430.174,2804.66 435.5,2801.5C 442.499,2796.49 449.165,2791.16 455.5,2785.5 Z"/></g>
<g><path style="opacity:1" fill="#0b7a69" d="M 3541.5,2785.5 C 3542.55,2785.35 3543.55,2785.52 3544.5,2786C 3550.8,2791.81 3557.47,2797.15 3564.5,2802C 3569.6,2804.25 3574.6,2806.75 3579.5,2809.5C 3580.52,2810 3580.69,2810.67 3580,2811.5C 3575.12,2815.75 3569.62,2818.92 3563.5,2821C 3560.33,2822.83 3557.83,2825.33 3556,2828.5C 3555.17,2832.01 3553.67,2835.17 3551.5,2838C 3548.18,2855.31 3540.85,2870.64 3529.5,2884C 3514.23,2894.96 3497.23,2901.46 3478.5,2903.5C 3478.35,2902.45 3478.52,2901.45 3479,2900.5C 3490.72,2892.73 3499.38,2882.4 3505,2869.5C 3508.13,2851.55 3511.13,2833.55 3514,2815.5C 3516.06,2806.45 3520.89,2799.28 3528.5,2794C 3532.59,2790.63 3536.92,2787.8 3541.5,2785.5 Z"/></g>
<g><path style="opacity:1" fill="#141c16" d="M 3282.5,2779.5 C 3280.58,2784.34 3277.92,2788.68 3274.5,2792.5C 3276.45,2787.58 3279.11,2783.25 3282.5,2779.5 Z"/></g>
<g><path style="opacity:1" fill="#141d16" d="M 725.5,2792.5 C 730.663,2799.49 735.33,2806.82 739.5,2814.5C 733.838,2807.85 729.171,2800.52 725.5,2792.5 Z"/></g>
<g><path style="opacity:1" fill="#0b7a69" d="M 399.5,2817.5 C 400.497,2817.47 401.164,2817.97 401.5,2819C 396.827,2826.16 395.327,2833.99 397,2842.5C 401.021,2857.56 405.354,2872.56 410,2887.5C 413.815,2911.89 405.649,2931.22 385.5,2945.5C 385.167,2944.83 384.833,2944.17 384.5,2943.5C 387.212,2932.87 389.212,2922.2 390.5,2911.5C 390.726,2905.35 389.893,2899.35 388,2893.5C 384.568,2886.23 380.568,2879.23 376,2872.5C 369.979,2867.48 364.312,2862.14 359,2856.5C 354.423,2845.47 355.923,2835.47 363.5,2826.5C 376.156,2825.34 388.156,2822.34 399.5,2817.5 Z"/></g>
<g><path style="opacity:1" fill="#0b7a69" d="M 3598.5,2817.5 C 3600.78,2818.64 3603.11,2819.81 3605.5,2821C 3615.76,2823.28 3626.09,2825.12 3636.5,2826.5C 3644.08,2835.47 3645.58,2845.47 3641,2856.5C 3635.33,2861.83 3629.67,2867.17 3624,2872.5C 3617.7,2881.39 3613.03,2891.06 3610,2901.5C 3609.33,2908.17 3609.33,2914.83 3610,2921.5C 3612.46,2929.66 3614.12,2938 3615,2946.5C 3603.69,2937.85 3595.36,2926.85 3590,2913.5C 3588.05,2904.84 3588.05,2896.17 3590,2887.5C 3594.65,2872.56 3598.98,2857.56 3603,2842.5C 3603.67,2837.83 3603.67,2833.17 3603,2828.5C 3601.22,2824.91 3599.72,2821.24 3598.5,2817.5 Z"/></g>
<g><path style="opacity:1" fill="#0b7a69" d="M 797.5,3259.5 C 796.682,3263.13 795.015,3266.29 792.5,3269C 786.572,3271.14 780.572,3272.98 774.5,3274.5C 714.624,3236.01 659.29,3191.51 608.5,3141C 595.724,3129.87 581.391,3121.21 565.5,3115C 553.386,3112.3 541.386,3108.97 529.5,3105C 524.406,3104.48 519.406,3103.48 514.5,3102C 510.167,3101.33 505.833,3101.33 501.5,3102C 498,3104.83 494.833,3108 492,3111.5C 485.152,3127.33 474.986,3140.5 461.5,3151C 456.008,3153.05 450.674,3155.22 445.5,3157.5C 433.518,3158.31 421.518,3158.64 409.5,3158.5C 403.248,3157.38 396.915,3157.21 390.5,3158C 388.831,3159.67 386.831,3160.5 384.5,3160.5C 386.817,3150.07 390.65,3140.07 396,3130.5C 412.815,3113.14 433.315,3102.97 457.5,3100C 470.421,3099.7 483.254,3099.53 496,3099.5C 496.448,3097.59 495.615,3096.42 493.5,3096C 473.368,3090.14 453.034,3084.97 432.5,3080.5C 428.796,3078.91 424.796,3078.08 420.5,3078C 402.449,3077.93 384.449,3077.1 366.5,3075.5C 363.097,3074.07 359.43,3073.24 355.5,3073C 326.924,3057.22 310.257,3033.06 305.5,3000.5C 305.833,2999.83 306.167,2999.17 306.5,2998.5C 308.131,3000.3 310.131,3001.46 312.5,3002C 326.512,3005.43 340.678,3007.93 355,3009.5C 363.4,3011.85 371.233,3015.35 378.5,3020C 389.078,3030.57 398.911,3041.74 408,3053.5C 413.852,3060.02 420.352,3065.85 427.5,3071C 436.336,3074.79 445.336,3078.13 454.5,3081C 469.974,3085.56 485.641,3089.39 501.5,3092.5C 501.66,3090.8 501.494,3089.13 501,3087.5C 497.594,3082.59 493.427,3078.59 488.5,3075.5C 474.283,3070.79 459.95,3066.29 445.5,3062C 426.002,3049.85 417.169,3032.35 419,3009.5C 419.346,3006.42 420.012,3003.42 421,3000.5C 421.414,3000.04 421.914,2999.71 422.5,2999.5C 428.611,3002.05 434.611,3004.89 440.5,3008C 454.832,3011.94 467.665,3018.77 479,3028.5C 486.602,3038.54 492.768,3049.37 497.5,3061C 500.791,3070.45 503.957,3079.95 507,3089.5C 508.833,3091.33 510.667,3093.17 512.5,3095C 532.511,3100.58 552.845,3105.08 573.5,3108.5C 574.833,3108.17 576.167,3107.83 577.5,3107.5C 512.512,3034.15 461.012,2952.15 423,2861.5C 420.872,2858.37 418.372,2855.54 415.5,2853C 407.45,2851.45 403.783,2846.62 404.5,2838.5C 404.561,2835.1 405.061,2831.76 406,2828.5C 408.393,2826.38 409.726,2823.71 410,2820.5C 410.956,2819.11 412.289,2818.44 414,2818.5C 417.891,2819.46 421.725,2820.63 425.5,2822C 429.827,2825.93 434.327,2829.76 439,2833.5C 438.669,2840.48 438.669,2847.48 439,2854.5C 507.123,3019.09 615.623,3149.75 764.5,3246.5C 765.583,3245.64 765.749,3244.64 765,3243.5C 738.836,3208.84 716.502,3171.84 698,3132.5C 693.55,3128.73 689.05,3124.89 684.5,3121C 678.935,3118.85 673.602,3116.18 668.5,3113C 658.872,3109.34 649.205,3105.68 639.5,3102C 608.284,3080.7 595.451,3051.2 601,3013.5C 601.329,3009.96 603.162,3008.79 606.5,3010C 619.076,3023.24 633.409,3034.24 649.5,3043C 654.946,3047.29 659.779,3052.12 664,3057.5C 668.047,3073.02 672.714,3088.35 678,3103.5C 681.341,3110.84 686.174,3117.01 692.5,3122C 693.793,3122.49 695.127,3122.66 696.5,3122.5C 691.301,3101.04 685.468,3079.71 679,3058.5C 677.214,3046.45 675.214,3034.45 673,3022.5C 670.413,3018.24 667.413,3014.24 664,3010.5C 661.994,3007.46 661.16,3004.13 661.5,3000.5C 670.536,3001.17 679.536,3002.17 688.5,3003.5C 692.3,3003.54 695.967,3002.88 699.5,3001.5C 700.442,3001.61 701.275,3001.94 702,3002.5C 702.667,3004.5 702.667,3006.5 702,3008.5C 696.711,3012.12 691.711,3016.12 687,3020.5C 685.454,3031.45 685.121,3042.45 686,3053.5C 687.883,3063.46 689.549,3073.46 691,3083.5C 693.542,3091.88 696.209,3100.21 699,3108.5C 699.972,3110.77 701.305,3112.77 703,3114.5C 704.653,3114.18 705.653,3113.18 706,3111.5C 710.14,3094.29 714.806,3077.29 720,3060.5C 734.143,3030.35 757.643,3018.68 790.5,3025.5C 790.657,3026.87 790.49,3028.21 790,3029.5C 777.345,3043.84 769.679,3060.5 767,3079.5C 759.695,3089.81 750.529,3097.97 739.5,3104C 729.662,3109.91 718.996,3113.58 707.5,3115C 706.106,3115.96 705.439,3117.29 705.5,3119C 723.861,3170.07 751.861,3215.07 789.5,3254C 792.065,3256.08 794.732,3257.91 797.5,3259.5 Z"/></g>
<g><path style="opacity:1" fill="#0b7a69" d="M 3633.5,3075.5 C 3615.56,3077.16 3597.56,3078 3579.5,3078C 3574.53,3078.89 3569.53,3079.55 3564.5,3080C 3562.35,3080.1 3560.68,3080.93 3559.5,3082.5C 3542.96,3085.89 3526.62,3090.05 3510.5,3095C 3508.71,3096.16 3506.71,3096.83 3504.5,3097C 3503.55,3097.72 3503.38,3098.55 3504,3099.5C 3535.61,3095.82 3564.78,3102.32 3591.5,3119C 3595.37,3123.2 3599.53,3127.03 3604,3130.5C 3609.35,3140.07 3613.18,3150.07 3615.5,3160.5C 3613.1,3160.74 3611.1,3160.07 3609.5,3158.5C 3593,3157.87 3576.34,3157.87 3559.5,3158.5C 3555.19,3157.35 3550.86,3156.19 3546.5,3155C 3542.05,3151.96 3537.39,3149.29 3532.5,3147C 3522.5,3136.51 3514.33,3124.68 3508,3111.5C 3503.93,3106.22 3498.76,3102.55 3492.5,3100.5C 3469.55,3105.49 3446.88,3111.33 3424.5,3118C 3421.45,3120.19 3418.11,3121.86 3414.5,3123C 3409.5,3126.67 3404.5,3130.33 3399.5,3134C 3346.89,3185.63 3289.89,3231.63 3228.5,3272C 3227.18,3272.82 3226.51,3273.98 3226.5,3275.5C 3219.93,3273.81 3213.43,3271.81 3207,3269.5C 3203.52,3267.53 3201.69,3264.53 3201.5,3260.5C 3223.63,3241.34 3242.47,3219.34 3258,3194.5C 3272.85,3170.59 3285.02,3145.43 3294.5,3119C 3294.56,3117.29 3293.89,3115.96 3292.5,3115C 3273.18,3112.47 3256.35,3104.63 3242,3091.5C 3238.62,3087.78 3235.62,3083.78 3233,3079.5C 3230.33,3060.51 3222.66,3043.84 3210,3029.5C 3209.51,3028.21 3209.34,3026.87 3209.5,3025.5C 3224.73,3021.73 3239.4,3023.23 3253.5,3030C 3259.29,3034.12 3264.79,3038.62 3270,3043.5C 3273.81,3048.95 3277.14,3054.62 3280,3060.5C 3285.19,3077.29 3289.86,3094.29 3294,3111.5C 3294.35,3113.18 3295.35,3114.18 3297,3114.5C 3298.69,3112.77 3300.03,3110.77 3301,3108.5C 3303.79,3100.21 3306.46,3091.88 3309,3083.5C 3311.81,3069.62 3313.64,3055.62 3314.5,3041.5C 3314.75,3034.36 3313.91,3027.36 3312,3020.5C 3307.33,3016.5 3302.67,3012.5 3298,3008.5C 3297.33,3006.5 3297.33,3004.5 3298,3002.5C 3298.72,3001.94 3299.56,3001.61 3300.5,3001.5C 3304.03,3002.88 3307.7,3003.54 3311.5,3003.5C 3320.53,3002.58 3329.53,3001.58 3338.5,3000.5C 3338.84,3004.13 3338.01,3007.46 3336,3010.5C 3332.02,3013.82 3329.02,3017.82 3327,3022.5C 3322.37,3054.69 3314.7,3086.02 3304,3116.5C 3303.5,3118.47 3303.34,3120.47 3303.5,3122.5C 3305.2,3122.66 3306.87,3122.49 3308.5,3122C 3315.96,3114.85 3321.46,3106.35 3325,3096.5C 3328.45,3085.7 3331.12,3074.7 3333,3063.5C 3336.62,3055.87 3341.78,3049.37 3348.5,3044C 3364.76,3034.37 3379.76,3023.03 3393.5,3010C 3396.49,3009.25 3398.33,3010.42 3399,3013.5C 3404.9,3049.51 3393.06,3078.01 3363.5,3099C 3349.27,3105.58 3334.94,3111.91 3320.5,3118C 3305.45,3125.38 3295.95,3137.22 3292,3153.5C 3275.5,3185.19 3256.5,3215.19 3235,3243.5C 3234.25,3244.64 3234.42,3245.64 3235.5,3246.5C 3384.66,3149.52 3493.16,3018.85 3561,2854.5C 3561.33,2847.48 3561.33,2840.48 3561,2833.5C 3567.9,2825.89 3576.23,2820.89 3586,2818.5C 3587.71,2818.44 3589.04,2819.11 3590,2820.5C 3590.27,2823.71 3591.61,2826.38 3594,2828.5C 3595.95,2834.85 3595.95,2841.18 3594,2847.5C 3591.2,2849.89 3588.04,2851.72 3584.5,2853C 3581.63,2855.54 3579.13,2858.37 3577,2861.5C 3543.69,2941.43 3499.69,3014.76 3445,3081.5C 3437.67,3089.5 3430.33,3097.5 3423,3105.5C 3422.52,3106.45 3422.35,3107.45 3422.5,3108.5C 3444.01,3104.96 3465.35,3100.46 3486.5,3095C 3489.67,3093.17 3492.17,3090.67 3494,3087.5C 3498.27,3071.43 3504.27,3056.09 3512,3041.5C 3517.47,3032.7 3524.3,3025.2 3532.5,3019C 3537.16,3018.13 3541.16,3016.13 3544.5,3013C 3547.23,3012.59 3549.9,3011.92 3552.5,3011C 3560.21,3006.57 3568.21,3002.74 3576.5,2999.5C 3578.78,2999.78 3579.95,3001.11 3580,3003.5C 3584.02,3025.78 3577.18,3043.95 3559.5,3058C 3555.29,3059.62 3551.29,3061.62 3547.5,3064C 3535.29,3068.14 3522.96,3072.14 3510.5,3076C 3504.5,3079.78 3500.5,3084.94 3498.5,3091.5C 3517.44,3087.93 3536.11,3083.43 3554.5,3078C 3555.17,3077.33 3555.83,3076.67 3556.5,3076C 3562.84,3074.66 3568.84,3072.49 3574.5,3069.5C 3589.69,3055.81 3603.53,3040.81 3616,3024.5C 3618.92,3020.91 3622.42,3018.08 3626.5,3016C 3643.48,3009.55 3661.15,3005.55 3679.5,3004C 3683.97,3002.45 3688.47,3000.95 3693,2999.5C 3690.8,3026.41 3678.97,3048.24 3657.5,3065C 3651.6,3068.53 3645.43,3071.7 3639,3074.5C 3637.23,3075.23 3635.4,3075.57 3633.5,3075.5 Z"/></g>
<g><path style="opacity:1" fill="#151e16" d="M 739.5,2814.5 C 747.575,2824.98 754.908,2835.98 761.5,2847.5C 753.39,2837.05 746.056,2826.05 739.5,2814.5 Z"/></g>
<g><path style="opacity:1" fill="#131b14" d="M 761.5,2847.5 C 765.237,2851.3 768.237,2855.64 770.5,2860.5C 766.763,2856.7 763.763,2852.36 761.5,2847.5 Z"/></g>
<g><path style="opacity:1" fill="#c93e47" d="M 704.5,2858.5 C 705.826,2860.2 705.493,2861.53 703.5,2862.5C 696.117,2864 688.784,2863.66 681.5,2861.5C 680.17,2859.65 680.503,2858.15 682.5,2857C 690.121,2854.91 697.454,2855.41 704.5,2858.5 Z"/></g>
<g><path style="opacity:1" fill="#c34347" d="M 3301.5,2855.5 C 3307.64,2855.18 3313.64,2855.84 3319.5,2857.5C 3319.51,2861.35 3317.51,2863.19 3313.5,2863C 3306.77,2863.83 3300.1,2863.5 3293.5,2862C 3292.55,2861.28 3292.38,2860.45 3293,2859.5C 3295.74,2857.71 3298.57,2856.38 3301.5,2855.5 Z"/></g>
<g><path style="opacity:1" fill="#d33847" d="M 662.5,2857.5 C 664.91,2857.92 666.743,2859.25 668,2861.5C 675.9,2873.4 684.567,2884.74 694,2895.5C 694.701,2898.93 694.368,2902.26 693,2905.5C 686.712,2912.62 680.212,2919.62 673.5,2926.5C 671.282,2925.08 669.782,2923.08 669,2920.5C 666.864,2913.76 664.531,2907.09 662,2900.5C 658.676,2886.07 658.842,2871.73 662.5,2857.5 Z"/></g>
<g><path style="opacity:1" fill="#925845" d="M 704.5,2858.5 C 705.995,2858.41 706.995,2859.08 707.5,2860.5C 706.68,2862.11 705.346,2862.78 703.5,2862.5C 705.493,2861.53 705.826,2860.2 704.5,2858.5 Z"/></g>
<g><path style="opacity:1" fill="#d23847" d="M 3333.5,2913.5 C 3332.08,2915.51 3331.41,2917.85 3331.5,2920.5C 3330.32,2922.84 3328.65,2924.84 3326.5,2926.5C 3319.42,2920.04 3312.92,2913.04 3307,2905.5C 3305.63,2902.26 3305.3,2898.93 3306,2895.5C 3316.81,2883.21 3326.64,2870.21 3335.5,2856.5C 3335.83,2856.67 3336.17,2856.83 3336.5,2857C 3339.49,2863.13 3340.82,2869.63 3340.5,2876.5C 3340.48,2889.33 3338.15,2901.66 3333.5,2913.5 Z"/></g>
<g><path style="opacity:1" fill="#151e17" d="M 770.5,2860.5 C 779.654,2872.14 788.321,2884.14 796.5,2896.5C 786.856,2885.22 778.19,2873.22 770.5,2860.5 Z"/></g>
<g><path style="opacity:1" fill="#815d44" d="M 735.5,2866.5 C 733.097,2866.45 730.764,2866.78 728.5,2867.5C 729.312,2866.01 730.645,2865.34 732.5,2865.5C 733.726,2865.52 734.726,2865.85 735.5,2866.5 Z"/></g>
<g><path style="opacity:1" fill="#d33847" d="M 735.5,2866.5 C 735.5,2869.17 735.5,2871.83 735.5,2874.5C 733.586,2877.68 732.92,2881.35 733.5,2885.5C 730.536,2891.34 727.703,2897.34 725,2903.5C 720.224,2919.21 715.558,2934.87 711,2950.5C 707.719,2957.56 703.552,2964.06 698.5,2970C 696.557,2971.56 694.39,2972.72 692,2973.5C 691.5,2973.17 691,2972.83 690.5,2972.5C 689.17,2960.01 685.337,2948.34 679,2937.5C 678.333,2935.5 678.333,2933.5 679,2931.5C 681.287,2929.95 683.454,2928.28 685.5,2926.5C 687.587,2925.42 688.92,2923.75 689.5,2921.5C 696.945,2909.54 703.778,2897.21 710,2884.5C 716.756,2879.39 722.923,2873.72 728.5,2867.5C 730.764,2866.78 733.097,2866.45 735.5,2866.5 Z"/></g>
<g><path style="opacity:1" fill="#d33847" d="M 3266.5,2885.5 C 3267.08,2881.35 3266.41,2877.68 3264.5,2874.5C 3264.5,2871.5 3264.5,2868.5 3264.5,2865.5C 3266.56,2865.69 3268.56,2866.19 3270.5,2867C 3276.07,2873.24 3282.24,2878.74 3289,2883.5C 3297.7,2902 3308.53,2919 3321.5,2934.5C 3315.31,2946.41 3311.31,2959.08 3309.5,2972.5C 3308.83,2972.83 3308.17,2973.17 3307.5,2973.5C 3302.27,2971.11 3298.11,2967.44 3295,2962.5C 3293.38,2958.29 3291.38,2954.29 3289,2950.5C 3284.35,2935.67 3280.02,2920.67 3276,2905.5C 3273.06,2898.62 3269.89,2891.95 3266.5,2885.5 Z"/></g>
<g><path style="opacity:1" fill="#656943" d="M 705.5,2869.5 C 698.274,2869.85 691.274,2870.85 684.5,2872.5C 683.596,2871.79 683.263,2870.79 683.5,2869.5C 690.833,2869.5 698.167,2869.5 705.5,2869.5 Z"/></g>
<g><path style="opacity:1" fill="#cd3b47" d="M 684.5,2872.5 C 691.274,2870.85 698.274,2869.85 705.5,2869.5C 709.479,2868.55 713.312,2867.21 717,2865.5C 717.5,2865.83 718,2866.17 718.5,2866.5C 714.182,2871.32 709.682,2875.99 705,2880.5C 702.625,2884.04 700.458,2887.71 698.5,2891.5C 694.559,2884.61 689.893,2878.28 684.5,2872.5 Z"/></g>
<g><path style="opacity:1" fill="#cd3b47" d="M 3298.5,2869.5 C 3304.41,2869.85 3310.07,2870.85 3315.5,2872.5C 3310.11,2878.28 3305.44,2884.61 3301.5,2891.5C 3296.52,2882.01 3289.85,2873.85 3281.5,2867C 3281.83,2866.5 3282.17,2866 3282.5,2865.5C 3287.54,2867.98 3292.88,2869.31 3298.5,2869.5 Z"/></g>
<g><path style="opacity:1" fill="#596d43" d="M 3298.5,2869.5 C 3304.5,2869.5 3310.5,2869.5 3316.5,2869.5C 3316.74,2870.79 3316.4,2871.79 3315.5,2872.5C 3310.07,2870.85 3304.41,2869.85 3298.5,2869.5 Z"/></g>
<g><path style="opacity:1" fill="#a45044" d="M 735.5,2874.5 C 735.192,2878.36 734.525,2882.03 733.5,2885.5C 732.92,2881.35 733.586,2877.68 735.5,2874.5 Z"/></g>
<g><path style="opacity:1" fill="#a45044" d="M 3264.5,2874.5 C 3266.41,2877.68 3267.08,2881.35 3266.5,2885.5C 3265.48,2882.03 3264.81,2878.36 3264.5,2874.5 Z"/></g>
<g><path style="opacity:1" fill="#736142" d="M 652.5,2888.5 C 651.833,2893.5 651.167,2898.5 650.5,2903.5C 650.171,2897.79 650.505,2892.13 651.5,2886.5C 652.298,2886.96 652.631,2887.62 652.5,2888.5 Z"/></g>
<g><path style="opacity:1" fill="#736142" d="M 3349.5,2903.5 C 3348.83,2898.5 3348.17,2893.5 3347.5,2888.5C 3347.37,2887.62 3347.7,2886.96 3348.5,2886.5C 3349.5,2892.13 3349.83,2897.79 3349.5,2903.5 Z"/></g>
<g><path style="opacity:1" fill="#d13a47" d="M 652.5,2888.5 C 653.768,2896.71 655.935,2904.71 659,2912.5C 670.268,2934.83 679.435,2957.83 686.5,2981.5C 690.506,2983.07 694.173,2982.4 697.5,2979.5C 704.767,2975.4 710.6,2969.73 715,2962.5C 717.333,2957.17 719.667,2951.83 722,2946.5C 724.874,2933.39 728.207,2920.39 732,2907.5C 733.918,2904 736.084,2900.66 738.5,2897.5C 739.5,2896.17 740.5,2896.17 741.5,2897.5C 736.138,2913.36 733.972,2929.7 735,2946.5C 733.518,2984.17 714.018,3000.67 676.5,2996C 659.512,2991.68 648.346,2981.18 643,2964.5C 642.17,2948.81 644.17,2933.48 649,2918.5C 649.501,2913.49 650.001,2908.49 650.5,2903.5C 651.167,2898.5 651.833,2893.5 652.5,2888.5 Z"/></g>
<g><path style="opacity:1" fill="#d13a47" d="M 3347.5,2888.5 C 3348.17,2893.5 3348.83,2898.5 3349.5,2903.5C 3351.2,2917.96 3353.7,2932.3 3357,2946.5C 3359.16,2971.53 3348.32,2987.87 3324.5,2995.5C 3317.87,2996.33 3311.2,2996.66 3304.5,2996.5C 3288.87,2995.03 3277.37,2987.36 3270,2973.5C 3265.3,2955.15 3263.3,2936.48 3264,2917.5C 3262.36,2910.78 3260.52,2904.11 3258.5,2897.5C 3259.5,2896.17 3260.5,2896.17 3261.5,2897.5C 3263.92,2900.66 3266.08,2904 3268,2907.5C 3271.79,2920.39 3275.13,2933.39 3278,2946.5C 3280.33,2951.83 3282.67,2957.17 3285,2962.5C 3289.74,2970.18 3295.9,2976.35 3303.5,2981C 3306.83,2981.67 3310.17,2981.67 3313.5,2981C 3320.57,2957.35 3329.74,2934.52 3341,2912.5C 3344.07,2904.71 3346.23,2896.71 3347.5,2888.5 Z"/></g>
<g><path style="opacity:1" fill="#141c15" d="M 796.5,2896.5 C 798.262,2897.26 799.262,2898.6 799.5,2900.5C 797.738,2899.74 796.738,2898.4 796.5,2896.5 Z"/></g>
<g><path style="opacity:1" fill="#151d16" d="M 799.5,2900.5 C 804.558,2905.62 808.891,2911.28 812.5,2917.5C 807.442,2912.38 803.109,2906.72 799.5,2900.5 Z"/></g>
<g><path style="opacity:1" fill="#5e6d44" d="M 3333.5,2913.5 C 3333.59,2916.15 3332.92,2918.49 3331.5,2920.5C 3331.41,2917.85 3332.08,2915.51 3333.5,2913.5 Z"/></g>
<g><path style="opacity:1" fill="#131c15" d="M 812.5,2917.5 C 815.556,2919.95 817.889,2922.95 819.5,2926.5C 816.444,2924.05 814.111,2921.05 812.5,2917.5 Z"/></g>
<g><path style="opacity:1" fill="#141f17" d="M 3274.5,2792.5 C 3218.07,2884.31 3152.07,2968.97 3076.5,3046.5C 3076.17,3046.5 3075.83,3046.5 3075.5,3046.5C 3150.31,2968.08 3216.64,2883.41 3274.5,2792.5 Z"/></g>
<g><path style="opacity:1" fill="#945844" d="M 689.5,2921.5 C 688.92,2923.75 687.587,2925.42 685.5,2926.5C 686.08,2924.25 687.413,2922.58 689.5,2921.5 Z"/></g>
<g><path style="opacity:1" fill="#131e16" d="M 819.5,2926.5 C 825.311,2932.79 830.645,2939.46 835.5,2946.5C 829.208,2940.57 823.875,2933.91 819.5,2926.5 Z"/></g>
<g><path style="opacity:1" fill="#151f17" d="M 835.5,2946.5 C 839.215,2949.61 842.215,2953.27 844.5,2957.5C 840.785,2954.39 837.785,2950.73 835.5,2946.5 Z"/></g>
<g><path style="opacity:1" fill="#161f17" d="M 844.5,2957.5 C 852.535,2966.2 860.202,2975.2 867.5,2984.5C 858.715,2976.39 851.048,2967.39 844.5,2957.5 Z"/></g>
<g><path style="opacity:1" fill="#4e7741" d="M 697.5,2979.5 C 694.173,2982.4 690.506,2983.07 686.5,2981.5C 690.212,2981.04 693.879,2980.37 697.5,2979.5 Z"/></g>
<g><path style="opacity:1" fill="#18221a" d="M 867.5,2984.5 C 872.865,2989.86 877.865,2995.53 882.5,3001.5C 876.39,2996.73 871.39,2991.06 867.5,2984.5 Z"/></g>
<g><path style="opacity:1" fill="#5b6e42" d="M 3324.5,2995.5 C 3324.08,2996.22 3323.42,2996.72 3322.5,2997C 3316.32,2997.82 3310.32,2997.65 3304.5,2996.5C 3311.2,2996.66 3317.87,2996.33 3324.5,2995.5 Z"/></g>
<g><path style="opacity:1" fill="#191f18" d="M 882.5,3001.5 C 886.234,3004.23 889.234,3007.56 891.5,3011.5C 887.766,3008.77 884.766,3005.44 882.5,3001.5 Z"/></g>
<g><path style="opacity:1" fill="#19211a" d="M 891.5,3011.5 C 896.23,3015.23 900.23,3019.56 903.5,3024.5C 898.77,3020.77 894.77,3016.44 891.5,3011.5 Z"/></g>
<g><path style="opacity:1" fill="#1c201a" d="M 903.5,3024.5 C 910.833,3031.17 917.833,3038.17 924.5,3045.5C 924.5,3045.83 924.5,3046.17 924.5,3046.5C 916.776,3039.78 909.776,3032.45 903.5,3024.5 Z"/></g>
<g><path style="opacity:0.988" fill="#c2a9a8" d="M 924.5,3046.5 C 924.5,3046.17 924.5,3045.83 924.5,3045.5C 929.5,3048.5 933.5,3052.5 936.5,3057.5C 932.5,3053.83 928.5,3050.17 924.5,3046.5 Z"/></g>
<g><path style="opacity:1" fill="#192c1f" d="M 924.5,3046.5 C 928.5,3050.17 932.5,3053.83 936.5,3057.5C 937.167,3058.83 938.167,3059.83 939.5,3060.5C 944.224,3066.23 949.558,3071.23 955.5,3075.5C 962.167,3082.5 968.833,3089.5 975.5,3096.5C 957.2,3081.2 940.2,3064.53 924.5,3046.5 Z"/></g>
<g><path style="opacity:0.992" fill="#c4aaa9" d="M 939.5,3060.5 C 945.442,3064.77 950.776,3069.77 955.5,3075.5C 949.558,3071.23 944.224,3066.23 939.5,3060.5 Z"/></g>
<g><path style="opacity:1" fill="#183826" d="M 3075.5,3046.5 C 3075.83,3046.5 3076.17,3046.5 3076.5,3046.5C 3066.83,3056.83 3056.83,3066.83 3046.5,3076.5C 3046.5,3076.17 3046.5,3075.83 3046.5,3075.5C 3055.83,3065.5 3065.5,3055.83 3075.5,3046.5 Z"/></g>
<g><path style="opacity:1" fill="#fefefe" d="M 3201.5,3260.5 C 3201.69,3264.53 3203.52,3267.53 3207,3269.5C 3213.43,3271.81 3219.93,3273.81 3226.5,3275.5C 3268.98,3291.05 3311.98,3305.55 3355.5,3319C 3369.17,3322.67 3382.83,3326.33 3396.5,3330C 3399.78,3330.76 3402.78,3332.09 3405.5,3334C 3379.55,3360.61 3353.55,3387.28 3327.5,3414C 3303.87,3435.3 3280.53,3456.97 3257.5,3479C 3231.21,3500.29 3205.21,3521.96 3179.5,3544C 2891.98,3767.92 2565.98,3900.59 2201.5,3942C 1926.48,3970.54 1657.81,3941.54 1395.5,3855C 1145.41,3770.7 922.747,3641.37 727.5,3467C 708.69,3449.1 689.69,3431.43 670.5,3414C 645.667,3388.5 620.833,3363 596,3337.5C 594.495,3335.7 594.328,3333.87 595.5,3332C 654.23,3315.61 712.397,3297.44 770,3277.5C 771.577,3276.45 773.077,3275.45 774.5,3274.5C 780.572,3272.98 786.572,3271.14 792.5,3269C 795.015,3266.29 796.682,3263.13 797.5,3259.5C 825.552,3193.45 856.219,3128.79 889.5,3065.5C 1127.49,3320.87 1419.83,3477.37 1766.5,3535C 2078.76,3580.9 2377.09,3535.9 2661.5,3400C 2830.8,3315.89 2979.8,3204.39 3108.5,3065.5C 3124.19,3094.07 3139.02,3123.07 3153,3152.5C 3169.07,3188.68 3185.24,3224.68 3201.5,3260.5 Z"/></g>
<g><path style="opacity:1" fill="#08815b" d="M 366.5,3075.5 C 384.449,3077.1 402.449,3077.93 420.5,3078C 424.796,3078.08 428.796,3078.91 432.5,3080.5C 413.217,3078.88 393.884,3078.05 374.5,3078C 371.478,3077.9 368.811,3077.07 366.5,3075.5 Z"/></g>
<g><path style="opacity:1" fill="#068456" d="M 3633.5,3075.5 C 3631.19,3077.07 3628.52,3077.9 3625.5,3078C 3613.5,3078.33 3601.5,3078.67 3589.5,3079C 3579.38,3079.33 3569.38,3080.5 3559.5,3082.5C 3560.68,3080.93 3562.35,3080.1 3564.5,3080C 3569.53,3079.55 3574.53,3078.89 3579.5,3078C 3597.56,3078 3615.56,3077.16 3633.5,3075.5 Z"/></g>
<g><path style="opacity:1" fill="#17221a" d="M 975.5,3096.5 C 983.472,3103.14 991.139,3110.14 998.5,3117.5C 989.929,3111.6 982.262,3104.6 975.5,3096.5 Z"/></g>
<g><path style="opacity:1" fill="#162018" d="M 998.5,3117.5 C 1013.47,3129.8 1028.13,3142.47 1042.5,3155.5C 1026.94,3143.95 1012.28,3131.28 998.5,3117.5 Z"/></g>
<g><path style="opacity:1" fill="#068555" d="M 3609.5,3158.5 C 3592.67,3159.44 3576,3159.44 3559.5,3158.5C 3576.34,3157.87 3593,3157.87 3609.5,3158.5 Z"/></g>
<g><path style="opacity:1" fill="#068555" d="M 445.5,3157.5 C 444.048,3158.3 442.382,3158.8 440.5,3159C 429.992,3159.83 419.658,3159.66 409.5,3158.5C 421.518,3158.64 433.518,3158.31 445.5,3157.5 Z"/></g>
<g><path style="opacity:1" fill="#161f17" d="M 1042.5,3155.5 C 1046.73,3157.78 1050.39,3160.78 1053.5,3164.5C 1049.27,3162.22 1045.61,3159.22 1042.5,3155.5 Z"/></g>
<g><path style="opacity:1" fill="#141d16" d="M 1053.5,3164.5 C 1069.13,3176.13 1084.46,3188.13 1099.5,3200.5C 1083.3,3189.64 1067.97,3177.64 1053.5,3164.5 Z"/></g>
<g><path style="opacity:1" fill="#131812" d="M 1099.5,3200.5 C 1101.4,3200.74 1102.74,3201.74 1103.5,3203.5C 1101.6,3203.26 1100.26,3202.26 1099.5,3200.5 Z"/></g>
<g><path style="opacity:1" fill="#152017" d="M 3046.5,3075.5 C 3046.5,3075.83 3046.5,3076.17 3046.5,3076.5C 2965.47,3155.91 2876.47,3224.57 2779.5,3282.5C 2802.17,3267.98 2824.84,3253.14 2847.5,3238C 2917.79,3188.89 2984.12,3134.73 3046.5,3075.5 Z"/></g>
<g><path style="opacity:1" fill="#1a231b" d="M 2779.5,3282.5 C 2761.33,3294.76 2742.33,3305.76 2722.5,3315.5C 2722.95,3314.54 2723.62,3313.71 2724.5,3313C 2743.14,3303.35 2761.47,3293.18 2779.5,3282.5 Z"/></g>
<g><path style="opacity:1" fill="#141c15" d="M 1103.5,3203.5 C 1282.81,3335.79 1482.14,3424.79 1701.5,3470.5C 1701.5,3470.83 1701.5,3471.17 1701.5,3471.5C 1502.06,3430.92 1318.73,3353.42 1151.5,3239C 1135.04,3227.69 1119.04,3215.86 1103.5,3203.5 Z"/></g>
<g><path style="opacity:1" fill="#1a1f1a" d="M 2722.5,3315.5 C 2632.84,3365.4 2538.84,3405.4 2440.5,3435.5C 2440.5,3435.17 2440.5,3434.83 2440.5,3434.5C 2511.47,3411.57 2580.8,3384.4 2648.5,3353C 2673.41,3340.71 2698.07,3328.21 2722.5,3315.5 Z"/></g>
<g><path style="opacity:1" fill="#280973" d="M 1114.5,3401.5 C 1125.77,3408.14 1137.1,3414.81 1148.5,3421.5C 1147.15,3447.63 1144.15,3473.63 1139.5,3499.5C 1139.83,3499.83 1140.17,3500.17 1140.5,3500.5C 1160.88,3484.12 1181.55,3468.12 1202.5,3452.5C 1214.5,3459.5 1226.5,3466.5 1238.5,3473.5C 1206.67,3492.92 1174.67,3512.08 1142.5,3531C 1131.04,3550.75 1119.71,3570.59 1108.5,3590.5C 1107.64,3591.58 1106.64,3591.75 1105.5,3591C 1095.33,3584.75 1085,3578.75 1074.5,3573C 1086.38,3553.41 1097.88,3533.58 1109,3513.5C 1110.33,3482.51 1111.16,3451.51 1111.5,3420.5C 1111.85,3413.93 1112.85,3407.6 1114.5,3401.5 Z"/></g>
<g><path style="opacity:1" fill="#9a96b1" d="M 1114.5,3401.5 C 1112.85,3407.6 1111.85,3413.93 1111.5,3420.5C 1111.5,3413.83 1111.5,3407.17 1111.5,3400.5C 1112.79,3400.26 1113.79,3400.6 1114.5,3401.5 Z"/></g>
<g><path style="opacity:1" fill="#280973" d="M 2829.5,3439.5 C 2831.14,3439.29 2832.64,3439.62 2834,3440.5C 2836.09,3449.69 2838.26,3458.85 2840.5,3468C 2822.94,3471.86 2806.6,3478.86 2791.5,3489C 2768.37,3510.38 2765.2,3534.54 2782,3561.5C 2797.72,3585.85 2819.22,3593.02 2846.5,3583C 2853.81,3580.02 2860.31,3575.85 2866,3570.5C 2866.67,3569.17 2866.67,3567.83 2866,3566.5C 2861.09,3557.01 2855.92,3547.67 2850.5,3538.5C 2842.93,3542.63 2835.26,3546.13 2827.5,3549C 2822.78,3541.07 2818.45,3532.9 2814.5,3524.5C 2832.18,3514.32 2850.18,3504.66 2868.5,3495.5C 2869.48,3495.98 2870.31,3496.64 2871,3497.5C 2884.17,3522.5 2897.33,3547.5 2910.5,3572.5C 2886.7,3599.4 2857.03,3615.9 2821.5,3622C 2793.6,3623.63 2771.1,3613.46 2754,3591.5C 2734.43,3565.32 2729.43,3536.65 2739,3505.5C 2750.95,3479.55 2770.12,3461.05 2796.5,3450C 2807.25,3445.27 2818.25,3441.77 2829.5,3439.5 Z"/></g>
<g><path style="opacity:1" fill="#141613" d="M 2440.5,3434.5 C 2440.5,3434.83 2440.5,3435.17 2440.5,3435.5C 2197.15,3508.47 1950.81,3520.47 1701.5,3471.5C 1701.5,3471.17 1701.5,3470.83 1701.5,3470.5C 1950.88,3518.74 2197.21,3506.74 2440.5,3434.5 Z"/></g>
<g><path style="opacity:1" fill="#280973" d="M 2694.5,3504.5 C 2696.69,3505.82 2698.19,3507.82 2699,3510.5C 2719.5,3560.17 2740,3609.83 2760.5,3659.5C 2749.88,3664.1 2739.22,3668.6 2728.5,3673C 2726.55,3673.99 2724.55,3674.32 2722.5,3674C 2685.85,3645.47 2650.19,3616.3 2615.5,3586.5C 2632.87,3623.97 2648.87,3661.97 2663.5,3700.5C 2653.64,3703.76 2643.97,3707.59 2634.5,3712C 2633.22,3712.68 2632.05,3712.52 2631,3711.5C 2610.02,3660.24 2588.86,3609.07 2567.5,3558C 2581.09,3552.08 2594.76,3546.24 2608.5,3540.5C 2630.83,3558 2653.17,3575.5 2675.5,3593C 2688.27,3603.77 2700.44,3615.27 2712,3627.5C 2695.15,3591.78 2679.31,3555.44 2664.5,3518.5C 2674.41,3513.64 2684.41,3508.97 2694.5,3504.5 Z"/></g>
<g><path style="opacity:1" fill="#280873" d="M 1333.5,3693.5 C 1331.28,3694.37 1328.95,3694.7 1326.5,3694.5C 1297.93,3690.63 1273.43,3678.63 1253,3658.5C 1235.38,3636.06 1230.71,3611.06 1239,3583.5C 1254.34,3536.08 1286.84,3514.58 1336.5,3519C 1358.17,3523.17 1377.5,3532.17 1394.5,3546C 1395.9,3547.06 1396.9,3548.39 1397.5,3550C 1391.7,3558.42 1385.54,3566.58 1379,3574.5C 1361.86,3556.68 1341.02,3549.18 1316.5,3552C 1300.63,3557.2 1289.13,3567.36 1282,3582.5C 1266.27,3618.66 1276.44,3644.49 1312.5,3660C 1321.31,3662.95 1330.31,3665.12 1339.5,3666.5C 1337.03,3675.4 1335.03,3684.4 1333.5,3693.5 Z"/></g>
<g><path style="opacity:1" fill="#2a0b73" d="M 2501.5,3519.5 C 2503.65,3519.37 2505.65,3519.87 2507.5,3521C 2514.2,3528.03 2521.2,3534.7 2528.5,3541C 2522.33,3542.83 2516.17,3544.67 2510,3546.5C 2498.12,3541.15 2486.62,3535.15 2475.5,3528.5C 2484.18,3525.17 2492.84,3522.17 2501.5,3519.5 Z"/></g>
<g><path style="opacity:1" fill="#290a73" d="M 2479.5,3543.5 C 2481.2,3543.34 2482.87,3543.51 2484.5,3544C 2494.35,3551.09 2504.01,3558.42 2513.5,3566C 2506.08,3567.86 2498.74,3570.03 2491.5,3572.5C 2486.19,3568.87 2480.86,3565.2 2475.5,3561.5C 2472.88,3567.2 2470.54,3573.03 2468.5,3579C 2460.88,3581.82 2453.21,3584.15 2445.5,3586C 2449.86,3574.59 2454.03,3563.09 2458,3551.5C 2465.29,3548.91 2472.45,3546.24 2479.5,3543.5 Z"/></g>
<g><path style="opacity:1" fill="#280873" d="M 1447.5,3562.5 C 1462.77,3567.76 1478.1,3572.92 1493.5,3578C 1494.43,3578.39 1495.09,3579.05 1495.5,3580C 1493.9,3638.15 1492.24,3696.31 1490.5,3754.5C 1477.95,3750.26 1465.45,3745.93 1453,3741.5C 1452.99,3726.98 1453.49,3712.48 1454.5,3698C 1454.09,3697.05 1453.43,3696.39 1452.5,3696C 1438,3691.17 1423.5,3686.33 1409,3681.5C 1408.23,3681.64 1407.56,3681.98 1407,3682.5C 1399.03,3694.64 1390.86,3706.64 1382.5,3718.5C 1370.69,3713.9 1358.69,3709.9 1346.5,3706.5C 1346.35,3705.45 1346.52,3704.45 1347,3703.5C 1380.72,3656.62 1414.22,3609.62 1447.5,3562.5 Z"/></g>
<g><path style="opacity:1" fill="#280873" d="M 2498.5,3578.5 C 2531.15,3576.91 2555.99,3589.91 2573,3617.5C 2589.45,3647.15 2591.78,3677.82 2580,3709.5C 2567.46,3731.71 2548.63,3745.54 2523.5,3751C 2482.93,3758.13 2453.43,3743.3 2435,3706.5C 2423.54,3681.89 2421.54,3656.56 2429,3630.5C 2437.9,3607.94 2453.73,3592.44 2476.5,3584C 2483.89,3581.82 2491.22,3579.99 2498.5,3578.5 Z"/></g>
<g><path style="opacity:1" fill="#f7f6f8" d="M 1460.5,3596.5 C 1461.16,3597.62 1461.49,3598.95 1461.5,3600.5C 1459.72,3622.46 1458.55,3644.46 1458,3666.5C 1457.44,3667.02 1456.77,3667.36 1456,3667.5C 1444.61,3663.98 1433.44,3659.98 1422.5,3655.5C 1435.98,3636.35 1448.65,3616.69 1460.5,3596.5 Z"/></g>
<g><path style="opacity:1" fill="#280873" d="M 1588.5,3606.5 C 1617.47,3604.54 1641.97,3613.87 1662,3634.5C 1673.49,3649.48 1679.33,3666.48 1679.5,3685.5C 1678.75,3711.27 1670.58,3734.27 1655,3754.5C 1631,3778.62 1602.5,3785.79 1569.5,3776C 1530.03,3760.81 1512.19,3731.97 1516,3689.5C 1519.37,3652.84 1537.54,3626.67 1570.5,3611C 1576.55,3609.17 1582.55,3607.67 1588.5,3606.5 Z"/></g>
<g><path style="opacity:1" fill="#280873" d="M 2389.5,3610.5 C 2391.47,3610.26 2393.3,3610.59 2395,3611.5C 2405.71,3665.36 2416.54,3719.2 2427.5,3773C 2427.36,3773.77 2427.02,3774.44 2426.5,3775C 2414.58,3777.25 2402.74,3779.75 2391,3782.5C 2386.3,3759.52 2381.8,3736.52 2377.5,3713.5C 2357.07,3716.99 2336.74,3720.99 2316.5,3725.5C 2316.17,3726.33 2315.83,3727.17 2315.5,3728C 2319.77,3749.51 2324.1,3771.01 2328.5,3792.5C 2328.18,3793.65 2327.52,3794.48 2326.5,3795C 2314.88,3797.49 2303.21,3799.66 2291.5,3801.5C 2280.88,3746.42 2269.88,3691.42 2258.5,3636.5C 2270.95,3634.81 2283.28,3632.48 2295.5,3629.5C 2299.86,3649.79 2304.02,3670.12 2308,3690.5C 2310.12,3692.46 2312.62,3692.96 2315.5,3692C 2333.75,3688.39 2351.92,3684.56 2370,3680.5C 2366.61,3659.54 2362.44,3638.71 2357.5,3618C 2368.26,3615.42 2378.93,3612.92 2389.5,3610.5 Z"/></g>
<g><path style="opacity:1" fill="#fcfcfd" d="M 2495.5,3609.5 C 2508.12,3609.15 2518.79,3613.48 2527.5,3622.5C 2546.91,3645.47 2552.74,3671.47 2545,3700.5C 2532.82,3721.18 2515.65,3726.68 2493.5,3717C 2485.29,3711.42 2478.79,3704.25 2474,3695.5C 2463.12,3675.83 2460.46,3655.16 2466,3633.5C 2471.59,3620.14 2481.43,3612.14 2495.5,3609.5 Z"/></g>
<g><path style="opacity:1" fill="#fcfcfd" d="M 1596.5,3636.5 C 1616.71,3635.67 1630.21,3644.67 1637,3663.5C 1642.2,3686.98 1638.53,3708.98 1626,3729.5C 1608.91,3752.62 1588.91,3755.62 1566,3738.5C 1558.29,3728.55 1554.46,3717.22 1554.5,3704.5C 1554.96,3683.95 1561.46,3665.61 1574,3649.5C 1580.44,3643.2 1587.94,3638.87 1596.5,3636.5 Z"/></g>
<g><path style="opacity:1" fill="#280873" d="M 1750.5,3639.5 C 1762.78,3640.22 1774.94,3641.55 1787,3643.5C 1785.63,3664.57 1783.46,3685.57 1780.5,3706.5C 1801.11,3709.53 1821.78,3712.2 1842.5,3714.5C 1843.25,3713.62 1843.75,3712.62 1844,3711.5C 1846.11,3690.81 1848.45,3670.14 1851,3649.5C 1863.07,3651.32 1875.24,3652.66 1887.5,3653.5C 1882,3708.86 1876.16,3764.19 1870,3819.5C 1868.6,3820.12 1867.1,3820.45 1865.5,3820.5C 1854.58,3819.49 1843.74,3818.16 1833,3816.5C 1835.42,3793.24 1837.58,3769.91 1839.5,3746.5C 1820.32,3744.67 1801.16,3742.67 1782,3740.5C 1780.5,3740.83 1779,3741.17 1777.5,3741.5C 1774.85,3764.52 1772.02,3787.52 1769,3810.5C 1756.94,3808.55 1744.78,3807.22 1732.5,3806.5C 1738.06,3750.77 1744.06,3695.1 1750.5,3639.5 Z"/></g>
<g><path style="opacity:1" fill="#280873" d="M 2148.5,3649.5 C 2150.53,3649.34 2152.53,3649.5 2154.5,3650C 2176.87,3704.24 2198.54,3758.74 2219.5,3813.5C 2206.23,3813.87 2193.07,3814.87 2180,3816.5C 2174.22,3802.99 2168.72,3789.32 2163.5,3775.5C 2161.33,3775.17 2159.17,3774.83 2157,3774.5C 2142.84,3775.68 2128.67,3776.68 2114.5,3777.5C 2111.76,3792.22 2108.76,3806.89 2105.5,3821.5C 2092.89,3823.01 2080.23,3824.01 2067.5,3824.5C 2079.68,3767.78 2092.18,3711.11 2105,3654.5C 2119.55,3652.47 2134.05,3650.8 2148.5,3649.5 Z"/></g>
<g><path style="opacity:1" fill="#280873" d="M 1976.5,3652.5 C 2029.78,3655.95 2057.11,3684.45 2058.5,3738C 2055.33,3801.18 2022.33,3830.18 1959.5,3825C 1929.51,3818.68 1910.01,3800.84 1901,3771.5C 1891.35,3736.47 1897.68,3704.8 1920,3676.5C 1935.86,3661.38 1954.69,3653.38 1976.5,3652.5 Z"/></g>
<g><path style="opacity:1" fill="#f7f7f9" d="M 2130.5,3679.5 C 2138.37,3701.76 2146.7,3723.92 2155.5,3746C 2142.83,3747.83 2130.16,3748.67 2117.5,3748.5C 2122.74,3725.64 2127.07,3702.64 2130.5,3679.5 Z"/></g>
<g><path style="opacity:1" fill="#fcfcfd" d="M 1973.5,3682.5 C 1994.83,3682.65 2008.67,3692.99 2015,3713.5C 2022.03,3737.91 2019.03,3760.91 2006,3782.5C 1992.1,3797.77 1975.93,3800.61 1957.5,3791C 1948.21,3783.61 1942.04,3774.11 1939,3762.5C 1933.7,3739.92 1936.7,3718.59 1948,3698.5C 1954.55,3689.98 1963.05,3684.65 1973.5,3682.5 Z"/></g>
<g><path style="opacity:1" fill="#8b86a6" d="M 1333.5,3693.5 C 1332.85,3694.73 1331.68,3695.39 1330,3695.5C 1328.62,3695.49 1327.45,3695.15 1326.5,3694.5C 1328.95,3694.7 1331.28,3694.37 1333.5,3693.5 Z"/></g>
</svg>
